<?xml version="1.0" encoding="UTF-8"?> <!-- Generator: Adobe Illustrator 22.1.0, SVG Export Plug-In . SVG Version: 6.00 Build 0) --> <svg xmlns="http://www.w3.org/2000/svg" xmlns:xlink="http://www.w3.org/1999/xlink" id="Layer_1" x="0px" y="0px" viewBox="0 0 24 30" style="enable-background:new 0 0 24 30;" xml:space="preserve"> <metadata><?xpacket begin="﻿" id="W5M0MpCehiHzreSzNTczkc9d"?> <?xpacket end="w"?></metadata> <style type="text/css"> .st0{fill:#076359;} </style> <g> <g transform="translate(-24.000000, -264.000000)"> <g transform="translate(25.000000, 265.000000)"> <path class="st0" d="M1,2v18h20V2H1z M0.5,1h21C21.8,1,22,1.2,22,1.5v19c0,0.3-0.2,0.5-0.5,0.5h-21C0.2,21,0,20.8,0,20.5v-19 C0,1.2,0.2,1,0.5,1z"></path> <path class="st0" d="M0.5,6h21C21.8,6,22,5.8,22,5.5S21.8,5,21.5,5h-21C0.2,5,0,5.2,0,5.5S0.2,6,0.5,6z"></path> <rect x="9" y="8" class="st0" width="1" height="1"></rect> <rect x="12" y="8" class="st0" width="1" height="1"></rect> <rect x="15" y="8" class="st0" width="1" height="1"></rect> <rect x="18" y="8" class="st0" width="1" height="1"></rect> <rect x="12" y="11" class="st0" width="1" height="1"></rect> <rect x="15" y="11" class="st0" width="1" height="1"></rect> <rect x="18" y="11" class="st0" width="1" height="1"></rect> <rect x="3" y="14" class="st0" width="1" height="1"></rect> <rect x="9" y="14" class="st0" width="1" height="1"></rect> <rect x="12" y="14" class="st0" width="1" height="1"></rect> <rect x="15" y="14" class="st0" width="1" height="1"></rect> <rect x="18" y="14" class="st0" width="1" height="1"></rect> <rect x="6" y="17" class="st0" width="1" height="1"></rect> <rect x="3" y="17" class="st0" width="1" height="1"></rect> <rect x="9" y="17" class="st0" width="1" height="1"></rect> <rect x="12" y="17" class="st0" width="1" height="1"></rect> <rect x="15" y="17" class="st0" width="1" height="1"></rect> <g transform="translate(3.000000, 8.000000)"> <path class="st0" d="M5,2h1.5C6.8,2,7,2.2,7,2.5v2C7,4.8,6.8,5,6.5,5H5v1.5C5,6.8,4.8,7,4.5,7h-2C2.2,7,2,6.8,2,6.5V5H0.5 C0.2,5,0,4.8,0,4.5v-2C0,2.2,0.2,2,0.5,2H2V0.5C2,0.2,2.2,0,2.5,0h2C4.8,0,5,0.2,5,0.5V2z M6,3H4.5C4.2,3,4,2.8,4,2.5V1H3v1.5 C3,2.8,2.8,3,2.5,3H1v1h1.5C2.8,4,3,4.2,3,4.5V6h1V4.5C4,4.2,4.2,4,4.5,4H6V3z"></path> </g> <path class="st0" d="M4,0.5v2C4,2.8,4.2,3,4.5,3S5,2.8,5,2.5v-2C5,0.2,4.8,0,4.5,0S4,0.2,4,0.5z"></path> <path class="st0" d="M17,0.5v2C17,2.8,17.2,3,17.5,3S18,2.8,18,2.5v-2C18,0.2,17.8,0,17.5,0S17,0.2,17,0.5z"></path> </g> </g> </g> </svg> 