<?xml version="1.0" encoding="UTF-8"?> <!-- Generator: Adobe Illustrator 22.1.0, SVG Export Plug-In . SVG Version: 6.00 Build 0) --> <svg xmlns="http://www.w3.org/2000/svg" xmlns:xlink="http://www.w3.org/1999/xlink" id="Layer_1" x="0px" y="0px" viewBox="0 0 100 125" style="enable-background:new 0 0 100 125;" xml:space="preserve"> <metadata><?xpacket begin="﻿" id="W5M0MpCehiHzreSzNTczkc9d"?> <?xpacket end="w"?></metadata> <style type="text/css"> .st0{fill:#076359;} </style> <path class="st0" d="M49.1,23.9c0.2,0.1,0.4,0.2,0.6,0.2c0.2,0,0.4-0.1,0.6-0.2c0.2-0.1,4.1-3.1,4.1-6.9c0-3.8-4-6.7-4.2-6.8 c-0.4-0.3-0.8-0.3-1.2,0c-0.2,0.1-4.1,3.1-4.1,6.9C45,20.9,49,23.8,49.1,23.9z M49.6,12.3c1,0.8,2.7,2.7,2.7,4.7 c0,2-1.7,3.9-2.7,4.8c-1-0.8-2.7-2.7-2.7-4.7C47,15,48.7,13.2,49.6,12.3z"></path> <path class="st0" d="M21.2,22.5c0,0.2-0.7,5.1,2,7.8c1.7,1.7,4.3,2,6,2c1,0,1.7-0.1,1.8-0.1c0.4-0.1,0.8-0.4,0.8-0.8 c0-0.2,0.7-5.1-2-7.8c-2.7-2.7-7.6-1.9-7.8-1.9C21.6,21.8,21.2,22.1,21.2,22.5z M23.1,23.6c1.3-0.1,3.8,0,5.3,1.4 c1.5,1.4,1.5,4,1.5,5.3c-1.5,0.1-3.9-0.1-5.3-1.4C23.1,27.4,23,24.9,23.1,23.6z"></path> <path class="st0" d="M17,45.6c-3.8,0-6.7,4-6.8,4.2c-0.3,0.4-0.3,0.8,0,1.2c0.1,0.2,3.1,4.1,6.9,4.1c0,0,0,0,0,0 c3.8,0,6.7-4,6.8-4.2c0.3-0.4,0.3-0.8,0-1.2C23.8,49.5,20.9,45.6,17,45.6C17.1,45.6,17,45.6,17,45.6z M21.8,50.3 c-1,1.1-2.8,2.7-4.7,2.7c0,0,0,0,0,0c-2,0-3.9-1.7-4.8-2.7c1-1.1,2.8-2.7,4.7-2.7c0,0,0,0,0,0C19.1,47.6,21,49.4,21.8,50.3z"></path> <path class="st0" d="M31.3,68.2c-0.2,0-5.1-0.7-7.8,2c-2.7,2.7-1.9,7.6-1.9,7.8c0.1,0.4,0.4,0.8,0.8,0.8c0.1,0,0.7,0.1,1.6,0.1 c1.7,0,4.4-0.3,6.2-2.1c2.7-2.7,1.9-7.6,1.9-7.8C32.1,68.6,31.8,68.3,31.3,68.2z M28.9,75.4c-1.4,1.5-4,1.5-5.3,1.5 c-0.1-1.3,0-3.8,1.4-5.3c1.4-1.5,4-1.5,5.3-1.5C30.4,71.4,30.3,74,28.9,75.4z"></path> <path class="st0" d="M45.6,83c0,3.8,4,6.7,4.2,6.8c0.2,0.1,0.4,0.2,0.6,0.2c0.2,0,0.4-0.1,0.6-0.2c0.2-0.1,4.1-3.1,4.1-6.9 c0-3.8-4-6.7-4.2-6.8c-0.4-0.3-0.8-0.2-1.2,0C49.5,76.2,45.6,79.2,45.6,83z M50.3,78.2c1,0.8,2.7,2.7,2.7,4.7c0,2-1.7,3.9-2.7,4.8 c-1-0.8-2.7-2.7-2.7-4.7C47.6,80.9,49.3,79,50.3,78.2z"></path> <path class="st0" d="M69,67.8c-0.4,0.1-0.8,0.4-0.8,0.8c0,0.2-0.7,5.1,2,7.8c1.7,1.7,4.3,2,6,2c1,0,1.7-0.1,1.8-0.1 c0.4-0.1,0.8-0.4,0.8-0.8c0-0.2,0.7-5.1-2-7.8C74.1,67,69.2,67.8,69,67.8z M76.9,76.4c-1.3,0.1-3.8,0-5.3-1.4 c-1.5-1.4-1.5-4-1.5-5.3c1.5-0.1,3.9,0.1,5.3,1.4C76.9,72.6,77,75.1,76.9,76.4z"></path> <path class="st0" d="M89.8,49c-0.1-0.2-3.1-4.1-6.9-4.1c0,0,0,0,0,0c-3.8,0-6.7,4-6.8,4.2c-0.3,0.4-0.3,0.8,0,1.2 c0.1,0.2,3.1,4.1,6.9,4.1c0,0,0,0,0,0c3.8,0,6.7-4,6.8-4.2C90.1,49.9,90.1,49.4,89.8,49z M83,52.4C82.9,52.4,82.9,52.4,83,52.4 c-2.1,0-3.9-1.7-4.8-2.7c1-1.1,2.8-2.7,4.7-2.7c0,0,0,0,0,0c2,0,3.9,1.7,4.8,2.7C86.7,50.7,84.9,52.4,83,52.4z"></path> <path class="st0" d="M69.7,23.2c-2.7,2.7-1.9,7.6-1.9,7.8c0.1,0.4,0.4,0.8,0.8,0.8c0.1,0,0.7,0.1,1.6,0.1c1.7,0,4.4-0.3,6.2-2.1 c2.7-2.7,1.9-7.6,1.9-7.8c-0.1-0.4-0.4-0.8-0.8-0.8C77.3,21.1,72.4,20.5,69.7,23.2z M76.4,23.1c0.1,1.3,0,3.8-1.4,5.3 c-1.4,1.5-4,1.5-5.3,1.5c-0.1-1.3,0-3.8,1.4-5.3C72.6,23.1,75.1,23,76.4,23.1z"></path> <path class="st0" d="M53.8,40.3c0.1,0,0.2,0.1,0.4,0.1c0.4,0,0.8-0.2,0.9-0.6l1.6-4c0.5,0.1,1,0.2,1.4,0.2c2.6,0,5.1-1.6,6.2-4.2 c1.2-3.1-1.4-10.7-1.8-11.6c-0.1-0.3-0.3-0.5-0.6-0.6c-0.3-0.1-0.6-0.1-0.8,0c-0.8,0.4-7.9,4.1-9.2,7.3C50.8,30,52,33.4,54.8,35 l-1.6,4C53,39.6,53.3,40.1,53.8,40.3z M62.4,31c-0.8,2-2.9,3.2-5,2.9l4.1-10.4C62.3,26.3,63,29.6,62.4,31z M53.8,27.6 c0.5-1.4,3.3-3.4,5.8-4.9l-4.1,10.4C53.8,32,53,29.7,53.8,27.6z"></path> <path class="st0" d="M47.3,32.1c0.6-1.6,0.6-3.4-0.1-5.1c-1.3-3.1-8.6-6.5-9.4-6.9c-0.3-0.1-0.6-0.1-0.8,0s-0.5,0.3-0.6,0.6 c-0.3,0.9-2.7,8.5-1.3,11.6c1.1,2.5,3.5,4,6.1,4c0.6,0,1.1-0.1,1.7-0.2l1.7,3.9c0.2,0.4,0.5,0.6,0.9,0.6c0.1,0,0.3,0,0.4-0.1 c0.5-0.2,0.7-0.8,0.5-1.3l-1.7-4C45.8,34.5,46.8,33.4,47.3,32.1z M36.9,31.5c-0.6-1.4-0.1-4.7,0.7-7.5L42,34.2 C39.9,34.6,37.8,33.5,36.9,31.5z M45.4,31.3c-0.3,0.8-0.9,1.5-1.6,2l-4.5-10.2c2.6,1.4,5.4,3.3,6,4.7C45.8,28.9,45.9,30.2,45.4,31.3 z"></path> <path class="st0" d="M19.6,38.1c-0.1,0.3-0.1,0.6,0,0.8c0.4,0.8,4.1,7.9,7.3,9.2c0.8,0.3,1.6,0.5,2.4,0.5c0.9,0,1.8-0.2,2.6-0.6 c1.3-0.6,2.4-1.5,3.1-2.7l4,1.6c0.1,0,0.2,0.1,0.4,0.1c0.4,0,0.8-0.2,0.9-0.6c0.2-0.5-0.1-1.1-0.6-1.3l-4-1.6 c0.3-1.4,0.2-2.8-0.4-4.1c-0.7-1.6-2-2.9-3.6-3.5h0c-3.1-1.2-10.7,1.4-11.6,1.8C19.9,37.6,19.7,37.8,19.6,38.1z M31.2,46.1 c-1.1,0.5-2.4,0.5-3.5,0.1c-1.4-0.5-3.4-3.3-4.9-5.8l10.4,4.1C32.7,45.2,32,45.7,31.2,46.1z M31,37.6C31,37.6,31,37.6,31,37.6 c1.1,0.5,2,1.3,2.5,2.4c0.4,0.8,0.5,1.7,0.3,2.6l-10.4-4.1C26.3,37.7,29.6,37,31,37.6z"></path> <path class="st0" d="M36,57.2l3.9-1.7c0.5-0.2,0.7-0.8,0.5-1.3c-0.2-0.5-0.8-0.7-1.3-0.5l-3.9,1.7c-1.7-2.7-5.2-3.9-8.2-2.5 c-3.1,1.3-6.5,8.6-6.9,9.4c-0.1,0.3-0.1,0.6,0,0.8c0.1,0.3,0.3,0.5,0.6,0.6c0.7,0.2,5.5,1.7,9.1,1.7c1,0,1.9-0.1,2.5-0.4 C35.3,63.6,36.8,60.3,36,57.2z M27.8,54.6c2-0.9,4.3-0.2,5.6,1.5l-10.2,4.5C24.6,58,26.4,55.2,27.8,54.6z M31.5,63.1 c-1.4,0.6-4.7,0.1-7.5-0.7L34.2,58C34.6,60.1,33.5,62.2,31.5,63.1z"></path> <path class="st0" d="M38.1,80.4c0.1,0,0.2,0.1,0.4,0.1c0.2,0,0.3,0,0.5-0.1c0.8-0.4,7.9-4.1,9.2-7.3c1.2-3.1-0.1-6.5-2.8-8.1l1.6-4 c0.2-0.5-0.1-1.1-0.6-1.3c-0.5-0.2-1.1,0.1-1.3,0.6l-1.6,4c-3.1-0.7-6.4,0.9-7.6,4c-1.2,3.1,1.4,10.7,1.8,11.6 C37.6,80.1,37.8,80.3,38.1,80.4z M46.2,72.4c-0.5,1.4-3.3,3.4-5.8,4.9l4.1-10.4C46.2,68,47,70.3,46.2,72.4z M37.6,69 c0.8-2,2.9-3.2,5-2.9l-4.1,10.4C37.7,73.7,37,70.4,37.6,69z"></path> <path class="st0" d="M62.6,80c0.1,0,0.3,0,0.4-0.1c0.3-0.1,0.5-0.3,0.6-0.6c0.3-0.9,2.7-8.5,1.3-11.6c-1.3-3-4.7-4.6-7.8-3.7 L55.5,60c-0.2-0.5-0.8-0.7-1.3-0.5c-0.5,0.2-0.7,0.8-0.5,1.3l1.7,4c-1.2,0.7-2.1,1.8-2.6,3.2c-0.6,1.6-0.6,3.4,0.1,5.1 c1.3,3.1,8.6,6.5,9.4,6.9C62.4,80,62.5,80,62.6,80z M58.9,65.7c1.8,0,3.5,1,4.2,2.8c0.6,1.4,0.1,4.7-0.7,7.5L58,65.8 C58.3,65.8,58.6,65.7,58.9,65.7z M54.6,72.2c-0.5-1.1-0.5-2.4-0.1-3.5c0.3-0.8,0.9-1.5,1.6-2l4.5,10.2C58,75.4,55.2,73.6,54.6,72.2z "></path> <path class="st0" d="M68.3,64.3L68.3,64.3c0.6,0.2,1.3,0.3,2.1,0.3c3.6,0,8.7-1.8,9.4-2.1c0.3-0.1,0.5-0.3,0.6-0.6s0.1-0.6,0-0.8 c-0.4-0.8-4.1-7.9-7.3-9.2c-1.6-0.6-3.4-0.6-5.1,0.1c-1.3,0.6-2.4,1.5-3.1,2.7l-4-1.6c-0.5-0.2-1.1,0-1.3,0.6 c-0.2,0.5,0.1,1.1,0.6,1.3l4,1.6c-0.3,1.4-0.2,2.8,0.4,4.1C65.3,62.4,66.6,63.6,68.3,64.3z M68.8,53.9c0.6-0.3,1.2-0.4,1.8-0.4 c0.6,0,1.1,0.1,1.7,0.3c1.4,0.5,3.4,3.3,4.9,5.8l-10.4-4.1C67.3,54.8,68,54.3,68.8,53.9z M66.1,57.4l10.4,4.1 c-2.8,0.8-6.1,1.5-7.5,0.9c0,0,0,0,0,0c-1.1-0.5-2-1.3-2.5-2.4C66.1,59.1,66,58.3,66.1,57.4z"></path> <path class="st0" d="M60.4,46.5c0.1,0,0.3,0,0.4-0.1l3.9-1.7c1.2,1.9,3.4,3.1,5.6,3.1c0.9,0,1.8-0.2,2.6-0.6 c3.1-1.3,6.5-8.6,6.9-9.4c0.1-0.3,0.1-0.6,0-0.8c-0.1-0.3-0.3-0.5-0.6-0.6c-0.9-0.3-8.5-2.7-11.6-1.3c-3,1.3-4.6,4.6-3.7,7.7 L60,44.5c-0.5,0.2-0.7,0.8-0.5,1.3C59.7,46.2,60.1,46.5,60.4,46.5z M72.2,45.4c-2,0.9-4.3,0.2-5.6-1.5l10.2-4.5 C75.4,42,73.6,44.8,72.2,45.4z M68.5,36.9c0.4-0.2,1-0.3,1.7-0.3c1.6,0,3.9,0.4,5.8,0.9L65.8,42C65.4,39.9,66.5,37.8,68.5,36.9z"></path> </svg> 