<?xml version="1.0" encoding="UTF-8"?> <!-- Generator: Adobe Illustrator 22.1.0, SVG Export Plug-In . SVG Version: 6.00 Build 0) --> <svg xmlns="http://www.w3.org/2000/svg" xmlns:xlink="http://www.w3.org/1999/xlink" id="Layer_1" x="0px" y="0px" viewBox="0 0 100 125" style="enable-background:new 0 0 100 125;" xml:space="preserve"> <style type="text/css"> .st0{fill:#076359;} </style> <path class="st0" d="M51.4,86.6l2-13.3l0,0c4.8-0.7,9.5-2.9,13.3-6.6c3.7-3.7,5.9-8.4,6.6-13.2l0-0.1l13.3-2 c0.7-0.1,1.2-0.7,1.2-1.4c0-0.7-0.5-1.3-1.2-1.4l-13.3-2c-1.5-10.3-9.6-18.4-19.9-19.9l-2-13.3c-0.1-0.7-0.7-1.2-1.4-1.2 c-0.7,0-1.3,0.5-1.4,1.2l-2,13.3l-0.1,0c-4.8,0.7-9.5,2.9-13.2,6.6c-3.7,3.7-5.9,8.4-6.6,13.2l0,0.1l-13.3,2 c-0.7,0.1-1.2,0.7-1.2,1.4s0.5,1.3,1.2,1.4l13.3,2c1.5,10.3,9.6,18.4,19.9,19.9l2,13.3c0.1,0.7,0.7,1.2,1.4,1.2 C50.7,87.7,51.3,87.3,51.4,86.6z M67,62c-0.3,0.4-0.6,0.8-0.9,1.2c0,0.1-0.1,0.1-0.1,0.2c0,0-0.1,0.1-0.1,0.2l0,0 c-0.1,0.1-0.1,0.1-0.2,0.2l-4.3-4.3c-0.5-0.5-1.4-0.5-1.9,0c-0.5,0.5-0.5,1.4,0,1.9l4.3,4.3c-0.2,0.2-0.5,0.4-0.7,0.6 c-0.1,0-0.1,0.1-0.2,0.1c-0.3,0.2-0.6,0.5-0.9,0.7c-0.1,0-0.1,0.1-0.2,0.1c-0.3,0.2-0.6,0.4-0.9,0.6c-0.1,0.1-0.2,0.1-0.3,0.2 c-2,1.2-4.3,2-6.6,2.5L56,56l14.4-2.2C69.9,56.8,68.7,59.6,67,62z M77.2,50l-21.9,3.4L52,50l3.4-3.4L77.2,50z M62.9,33.7 c0.2,0.2,0.4,0.3,0.6,0.5l0,0c0.1,0.1,0.1,0.1,0.2,0.2l-4.3,4.3c-0.5,0.5-0.5,1.4,0,1.9c0.3,0.3,0.6,0.4,1,0.4c0.4,0,0.7-0.1,1-0.4 l4.3-4.3c0.2,0.2,0.3,0.4,0.5,0.6c0.1,0.2,0.3,0.3,0.4,0.5c1.9,2.5,3.3,5.5,3.9,8.8L56,44l-2.2-14.4C57.2,30.2,60.3,31.6,62.9,33.7z M50,22.8l3.4,21.9L50,48l-3.4-3.4L50,22.8z M32.8,38.3c0.3-0.4,0.6-0.9,1-1.3c0.1-0.2,0.3-0.4,0.5-0.5c0,0,0.1-0.1,0.1-0.1l4.3,4.3 c0.3,0.3,0.6,0.4,1,0.4s0.7-0.1,1-0.4c0.5-0.5,0.5-1.4,0-2l-4.3-4.3c0.1-0.1,0.2-0.2,0.4-0.3l0,0c0.3-0.2,0.6-0.5,0.9-0.7 c0.2-0.1,0.4-0.3,0.6-0.4c0.3-0.2,0.5-0.4,0.8-0.5c0.2-0.1,0.3-0.2,0.5-0.3c0.3-0.2,0.5-0.3,0.8-0.5c1.8-1,3.8-1.7,6-2.1L44,44 l-14.4,2.2C30.1,43.3,31.2,40.6,32.8,38.3z M22.8,50l21.9-3.4L48,50l-3.4,3.4L22.8,50z M37.3,66.5c-0.1-0.1-0.3-0.2-0.4-0.3 c-0.2-0.2-0.4-0.3-0.6-0.5l4.3-4.3c0.5-0.5,0.5-1.4,0-1.9c-0.5-0.5-1.4-0.5-1.9,0l-4.3,4.3c-0.1-0.1-0.2-0.2-0.3-0.4l0,0 c-0.1-0.1-0.2-0.3-0.4-0.5c-0.1-0.2-0.3-0.4-0.4-0.5c-0.2-0.3-0.4-0.5-0.6-0.8c-0.1-0.2-0.3-0.4-0.4-0.6c-0.2-0.3-0.4-0.6-0.5-0.9 c-1-1.9-1.8-4-2.2-6.2L44,56l2.2,14.4C42.9,69.9,39.8,68.4,37.3,66.5z M46.6,55.3L50,52l3.4,3.4L50,77.2L46.6,55.3z"></path> </svg> 