<?xml version="1.0" encoding="UTF-8"?> <!-- Generator: Adobe Illustrator 22.1.0, SVG Export Plug-In . SVG Version: 6.00 Build 0) --> <svg xmlns="http://www.w3.org/2000/svg" xmlns:xlink="http://www.w3.org/1999/xlink" id="Layer_1" x="0px" y="0px" viewBox="0 0 100 125" style="enable-background:new 0 0 100 125;" xml:space="preserve"> <metadata><?xpacket begin="﻿" id="W5M0MpCehiHzreSzNTczkc9d"?> <?xpacket end="w"?></metadata> <style type="text/css"> .st0{fill:#FFFFFF;} </style> <g> <path class="st0" d="M97.4,59.4L82.6,38.3l6.1-21c0.2-0.6,0.1-1.3-0.3-1.8c-0.4-0.5-1-0.8-1.7-0.8H61.8l-1.5-7.5 c-0.2-1-1-1.7-2-1.7H15.3l-0.8-3.8c-0.2-1.1-1.3-1.8-2.5-1.6c-1.1,0.2-1.8,1.3-1.6,2.5l19.3,93.4H4.3c-1.1,0-2.1,0.9-2.1,2.1 c0,1.1,0.9,2.1,2.1,2.1h59.1c1.1,0,2.1-0.9,2.1-2.1c0-1.1-0.9-2.1-2.1-2.1H34L25,52.1h26.8l1.8,8.9c0,0.1,0,0.1,0.1,0.2 c0,0.1,0.1,0.2,0.1,0.3c0.1,0.1,0.2,0.3,0.3,0.4c0,0,0,0.1,0.1,0.1c0,0,0.1,0,0.1,0.1c0.1,0.1,0.3,0.2,0.5,0.3 c0.1,0,0.1,0.1,0.2,0.1c0.2,0.1,0.5,0.2,0.8,0.2h40.1c0.8,0,1.5-0.4,1.8-1.1C97.9,60.9,97.9,60,97.4,59.4z M16.2,9.6h40.3l7.9,38.3 H24.1L16.2,9.6z M61.7,52.1l-4.8,4.5L56,52.1H61.7z M60.9,58.5l7.5-7c0,0,0.1-0.1,0.1-0.1c0,0,0.1,0,0.1-0.1 c0.1-0.1,0.1-0.1,0.1-0.2c0.1-0.2,0.2-0.3,0.2-0.5c0-0.1,0.1-0.2,0.1-0.3c0-0.2,0-0.3,0-0.5c0-0.1,0-0.1,0-0.2l-6.3-30.8H84 l-5.6,19.3c-0.2,0.6-0.1,1.3,0.3,1.8l13.1,18.7C91.7,58.5,60.9,58.5,60.9,58.5z"></path> </g> </svg> 