<?xml version="1.0" encoding="UTF-8"?> <!-- Generator: Adobe Illustrator 22.1.0, SVG Export Plug-In . SVG Version: 6.00 Build 0) --> <svg xmlns="http://www.w3.org/2000/svg" xmlns:xlink="http://www.w3.org/1999/xlink" id="Layer_1" x="0px" y="0px" viewBox="0 0 100 125" style="enable-background:new 0 0 100 125;" xml:space="preserve"> <metadata><?xpacket begin="﻿" id="W5M0MpCehiHzreSzNTczkc9d"?> <?xpacket end="w"?></metadata> <style type="text/css"> .st0{fill:#FFFFFF;stroke:#FFFFFF;stroke-width:0.5;stroke-miterlimit:10;} </style> <path class="st0" d="M76.9,16.4c-0.2-0.3-0.5-0.6-0.9-0.6c-0.4,0-0.7,0.2-0.9,0.5L64.5,37.3L51,10.1c-0.2-0.3-0.5-0.6-0.9-0.6 c-0.4,0-0.7,0.2-0.9,0.5L34.4,39.6L23.8,18.8c-0.2-0.3-0.5-0.5-0.9-0.5c0,0,0,0,0,0c-0.4,0-0.7,0.2-0.9,0.6L10.1,42.9 c-0.2,0.5,0,1.1,0.5,1.3c0.1,0.1,0.3,0.1,0.4,0.1c0.4,0,0.7-0.2,0.9-0.6l3-6l1.9,3.4c0.2,0.3,0.5,0.5,0.9,0.5s0.7-0.2,0.9-0.5 l1.9-3.3l1.9,3.3c0.2,0.3,0.5,0.5,0.9,0.5c0.4,0,0.7-0.2,0.9-0.5l1.9-3.3l1.9,3.3c0.2,0.3,0.5,0.5,0.9,0.5s0.7-0.2,0.9-0.5l1.8-3.3 l2,3.9l-0.6,1.1c-0.2,0.5-0.1,1.1,0.4,1.3c0.5,0.2,1.1,0.1,1.3-0.4l7.3-14.5l1.8,3.3c0.4,0.6,1.4,0.6,1.7,0l1.9-3.3l1.9,3.3 c0.4,0.6,1.4,0.6,1.7,0l1.9-3.3l1.9,3.3c0.2,0.3,0.5,0.5,0.9,0.5s0.7-0.2,0.9-0.5l1.9-3.4l7.3,14.7c0.2,0.4,0.5,0.6,0.9,0.6 c0.1,0,0.3,0,0.4-0.1c0.5-0.2,0.7-0.8,0.5-1.3l-1.7-3.4l2-4l1.8,3.3c0.4,0.6,1.4,0.6,1.7,0l1.9-3.3l1.9,3.3c0.4,0.6,1.4,0.6,1.7,0 l1.9-3.3l1.9,3.3c0.2,0.3,0.5,0.5,0.9,0.5s0.7-0.2,0.9-0.5l1.9-3.3l4.1,8.4c0.2,0.4,0.5,0.6,0.9,0.6c0.1,0,0.3,0,0.4-0.1 c0.5-0.2,0.7-0.8,0.5-1.3L76.9,16.4z M28.6,38.7l-1.9-3.3c-0.4-0.6-1.4-0.6-1.7,0l-1.9,3.3l-1.9-3.3c-0.2-0.3-0.5-0.5-0.9-0.5 c-0.4,0-0.7,0.2-0.9,0.5l-1.9,3.3l-1.7-3l7-14.2l7.2,14.3L28.6,38.7z M55.5,30l-1.9-3.3c-0.4-0.6-1.4-0.6-1.7,0L50,30l-1.9-3.3 c-0.2-0.3-0.5-0.5-0.9-0.5s-0.7,0.2-0.9,0.5L44.5,30l-1.6-2.9l7.2-14.3l7,14.2L55.5,30z M81.3,36.2l-1.9-3.3c-0.4-0.6-1.4-0.6-1.7,0 l-1.9,3.3L74,32.9c-0.2-0.3-0.5-0.5-0.9-0.5s-0.7,0.2-0.9,0.5l-1.9,3.3l-1.6-2.9L76,19l7,14.2L81.3,36.2z"></path> <path class="st0" d="M88.3,69.5c0.4,0.4,1,0.4,1.4,0c0.4-0.4,0.4-1,0-1.4l-6.2-6.4c0,0,0,0,0,0c-0.1-0.1-0.2-0.2-0.3-0.2 c0,0,0,0,0,0c-0.1-0.1-0.3-0.1-0.4-0.1s-0.3,0-0.4,0.1c0,0,0,0,0,0c-0.1,0.1-0.2,0.1-0.3,0.2c0,0,0,0,0,0L76,68.1 c-0.4,0.4-0.4,1,0,1.4c0.2,0.2,0.4,0.3,0.7,0.3c0.3,0,0.5-0.1,0.7-0.3l4.5-4.6v3.4L76,74.4c-0.4,0.4-0.4,1,0,1.4 c0.4,0.4,1,0.4,1.4,0l4.5-4.6v3.4L76,80.8c-0.4,0.4-0.4,1,0,1.4c0.2,0.2,0.4,0.3,0.7,0.3c0.3,0,0.5-0.1,0.7-0.3l4.5-4.6V89 c0,0.6,0.4,1,1,1s1-0.4,1-1V77.5l4.5,4.6c0.4,0.4,1,0.4,1.4,0c0.4-0.4,0.4-1,0-1.4l-5.9-6.1v-3.4l4.5,4.6c0.2,0.2,0.5,0.3,0.7,0.3 c0.2,0,0.5-0.1,0.7-0.3c0.4-0.4,0.4-1,0-1.4l-5.9-6.1v-3.4L88.3,69.5z"></path> <path class="st0" d="M55.9,68.1c-0.4,0.4-0.4,1,0,1.4c0.2,0.2,0.4,0.3,0.7,0.3c0.3,0,0.5-0.1,0.7-0.3l4.5-4.6v11.5c0,0.6,0.4,1,1,1 s1-0.4,1-1V64.8l4.5,4.6c0.4,0.4,1,0.4,1.4,0c0.4-0.4,0.4-1,0-1.4L63.8,62v-3.4l4.5,4.6c0.2,0.2,0.5,0.3,0.7,0.3 c0.2,0,0.5-0.1,0.7-0.3c0.4-0.4,0.4-1,0-1.4l-5.9-6.1v-3.5l4.5,4.6c0.2,0.2,0.5,0.3,0.7,0.3c0.2,0,0.5-0.1,0.7-0.3 c0.4-0.4,0.4-1,0-1.4L63.5,49c0,0,0,0,0,0c-0.1-0.1-0.2-0.2-0.3-0.2c0,0,0,0,0,0c-0.1-0.1-0.3-0.1-0.4-0.1s-0.3,0-0.4,0.1 c0,0,0,0,0,0c-0.1,0.1-0.2,0.1-0.3,0.2c0,0,0,0,0,0l-6.2,6.4c-0.4,0.4-0.4,1,0,1.4c0.4,0.4,1,0.4,1.4,0l4.5-4.6v3.4l-5.9,6.1 c-0.4,0.4-0.4,1,0,1.4c0.4,0.4,1,0.4,1.4,0l4.5-4.6V62L55.9,68.1z"></path> <path class="st0" d="M49.7,49.9c0.4,0,0.8-0.2,0.9-0.6c0.3-0.7,0.4-1.4,0.4-2.1v-0.2c0-0.6-0.4-1-1-1s-1,0.4-1,1v0.2 c0,0.5-0.1,0.9-0.3,1.4c-0.2,0.5,0.1,1.1,0.6,1.3C49.5,49.9,49.6,49.9,49.7,49.9z"></path> <path class="st0" d="M31,50.9h-3.9l-0.1,0c-0.6,0-0.9,0.5-0.9,1c0,0.5,0.5,1,1,1c0,0,0,0,0,0H31c0.6,0,1-0.4,1-1S31.6,50.9,31,50.9z "></path> <path class="st0" d="M39,50.9h-4c-0.6,0-1,0.4-1,1s0.4,1,1,1h4c0.6,0,1-0.4,1-1S39.6,50.9,39,50.9z"></path> <path class="st0" d="M31.7,70.1h-4c-0.6,0-1,0.4-1,1s0.4,1,1,1h4c0.6,0,1-0.4,1-1S32.2,70.1,31.7,70.1z"></path> <path class="st0" d="M33.3,81.7h4c0.6,0,1-0.4,1-1s-0.4-1-1-1h-4c-0.6,0-1,0.4-1,1S32.7,81.7,33.3,81.7z"></path> <path class="st0" d="M25.3,81.7h4c0.6,0,1-0.4,1-1s-0.4-1-1-1h-4c-0.6,0-1,0.4-1,1S24.8,81.7,25.3,81.7z"></path> <path class="st0" d="M22.8,52.9c-0.9,1-1.3,2.3-1.3,3.7c0,0.3,0,0.6,0.1,0.8c0.1,0.5,0.5,0.9,1,0.9c0,0,0.1,0,0.1,0 c0.5-0.1,0.9-0.6,0.8-1.1c0-0.2,0-0.4,0-0.5c0-0.9,0.3-1.7,0.9-2.4c0.4-0.4,0.3-1.1-0.1-1.4C23.8,52.4,23.1,52.5,22.8,52.9z"></path> <path class="st0" d="M23.8,60c-0.3,0.5-0.2,1.1,0.3,1.4c0.9,0.6,2,0.9,3.1,0.9h1.3c0.6,0,1-0.4,1-1s-0.4-1-1-1h-1.3 c-0.7,0-1.4-0.2-2-0.6C24.7,59.4,24.1,59.5,23.8,60z"></path> <path class="st0" d="M39.3,62.1c-0.4,0.4-0.4,1-0.1,1.4c0.6,0.7,0.9,1.6,0.9,2.5l0,0.5c0,0.6,0.4,1,1,1c0,0,0,0,0,0c0.5,0,1-0.4,1-1 l0-0.6c0-1.4-0.5-2.8-1.4-3.8C40.3,61.8,39.7,61.7,39.3,62.1z"></path> <path class="st0" d="M16.7,71c0-0.6-0.5-1-1.1-0.9c-1.6,0.1-3.1,0.9-4.1,2.2c-0.3,0.4-0.3,1.1,0.2,1.4c0.2,0.1,0.4,0.2,0.6,0.2 c0.3,0,0.6-0.1,0.8-0.4c0.6-0.8,1.6-1.4,2.7-1.4C16.4,72.1,16.8,71.6,16.7,71z"></path> <path class="st0" d="M12.4,76.5c-0.1-0.5-0.6-0.9-1.1-0.8c-0.5,0.1-0.9,0.6-0.8,1.1c0.2,1.6,1.2,3.1,2.5,3.9 c0.2,0.1,0.4,0.2,0.5,0.2c0.3,0,0.6-0.2,0.8-0.5c0.3-0.5,0.2-1.1-0.3-1.4C13.2,78.5,12.6,77.6,12.4,76.5z"></path> <path class="st0" d="M17.3,81.7h4c0.6,0,1-0.4,1-1s-0.4-1-1-1h-4c-0.6,0-1,0.4-1,1S16.8,81.7,17.3,81.7z"></path> <path class="st0" d="M40.2,69.4c-0.4-0.4-1-0.5-1.4-0.1c-0.7,0.5-1.5,0.8-2.4,0.8h-0.7c-0.6,0-1,0.4-1,1s0.4,1,1,1h0.7 c1.3,0,2.6-0.5,3.6-1.3C40.5,70.4,40.5,69.8,40.2,69.4z"></path> <path class="st0" d="M41.3,81.7h4c0.6,0,1-0.4,1-1s-0.4-1-1-1h-4c-0.6,0-1,0.4-1,1S40.7,81.7,41.3,81.7z"></path> <path class="st0" d="M48.3,80.6c-0.1,0.5,0.3,1.1,0.8,1.2c1,0.2,1.9,0.8,2.5,1.8c0.2,0.3,0.5,0.5,0.9,0.5c0.2,0,0.3,0,0.5-0.1 c0.5-0.3,0.6-0.9,0.4-1.4c-0.8-1.4-2.2-2.4-3.8-2.7C48.9,79.7,48.4,80.1,48.3,80.6z"></path> <path class="st0" d="M47.9,51.2c-0.2-0.5-0.8-0.8-1.3-0.6c-0.4,0.1-0.8,0.2-1.3,0.2H43c-0.6,0-1,0.4-1,1s0.4,1,1,1h2.3 c0.7,0,1.3-0.1,2-0.3C47.8,52.3,48.1,51.8,47.9,51.2z"></path> <path class="st0" d="M24.7,71.1c0-0.6-0.4-1-1-1h-4c-0.6,0-1,0.4-1,1s0.4,1,1,1h4C24.3,72.1,24.7,71.6,24.7,71.1z"></path> <path class="st0" d="M31.4,61.3c0,0.6,0.4,1,1,1h4c0.6,0,1-0.4,1-1s-0.4-1-1-1h-4C31.9,60.3,31.4,60.7,31.4,61.3z"></path> <path class="st0" d="M52.1,87v2c0,0.6,0.4,1,1,1s1-0.4,1-1v-2c0-0.6-0.4-1-1-1S52.1,86.4,52.1,87z"></path> </svg> 