<?xml version="1.0" encoding="UTF-8"?> <!-- Generator: Adobe Illustrator 22.1.0, SVG Export Plug-In . SVG Version: 6.00 Build 0) --> <svg xmlns="http://www.w3.org/2000/svg" xmlns:xlink="http://www.w3.org/1999/xlink" id="Layer_1" x="0px" y="0px" viewBox="0 0 100 92.6" style="enable-background:new 0 0 100 92.6;" xml:space="preserve"> <style type="text/css"> .st0{fill:#EBEBEB;} </style> <g> <g> <path class="st0" d="M26.8,64.7C25,54,22.6,44.5,20.1,36.6c-2.5-7.8-5.1-14-7.4-18s-4.1-5.9-4.3-5.8c-0.3,0.2,1,2.3,2.9,6.5 c1.8,4.1,4,10.3,6.1,18.1s4.2,17.2,5.8,27.8c1.3,8.2,2.2,17.1,3,26.4h4C29.3,82.2,28.3,73.1,26.8,64.7z"></path> <path class="st0" d="M46.3,68c1.2-10.1,3.3-19.1,5.9-26.3c2.6-7.2,5.8-12.6,8.2-16.1c2.5-3.5,4.1-5.3,3.9-5.5 c-0.2-0.2-2.2,1.3-5.1,4.6c-2.9,3.3-6.6,8.7-9.6,16c-3.1,7.3-5.5,16.5-6.9,26.8c-1.1,7.5-1.5,15.7-1.3,24.2h4 C45,83.4,45.4,75.4,46.3,68z"></path> <path class="st0" d="M64.7,63.6c-1.4-10.3-3.8-19.5-6.9-26.8c-3-7.3-6.7-12.7-9.6-16c-2.9-3.3-4.9-4.8-5.1-4.6 c-0.2,0.2,1.4,2,3.9,5.5s5.6,8.9,8.2,16.1c2.6,7.2,4.7,16.1,5.9,26.3c1,8.5,1.4,17.9,0.7,27.7h4C66.3,81.8,65.9,72.3,64.7,63.6z"></path> <path class="st0" d="M76.9,87.3c-2.4-3.7-4.8-7.3-7.1-10.6c-4.7-6.6-9.4-12.3-13.5-16.8c-2.1-2.3-3.9-4.3-5.7-6 c-1.7-1.7-3.4-3.1-4.8-4.1c-2.9-2-4.8-2.5-4.9-2.3c-0.1,0.3,1.5,1.2,3.9,3.5c2.5,2.2,5.5,6,9.3,10.8s8.1,10.5,12.6,17.1 c2.3,3.3,4.5,6.8,6.8,10.5c0.5,0.8,1,1.6,1.4,2.3h4.5C78.7,90.2,77.8,88.7,76.9,87.3z"></path> <path class="st0" d="M72.2,49.8c4-13.6,7.5-21.6,7-21.9c-0.2-0.1-1.4,1.7-3.2,5.3c-1.8,3.6-4.1,8.9-6.4,15.7 c-3.9,10.9-7.6,25.9-8.9,42.9h4C65.9,75.3,69,60.6,72.2,49.8z"></path> <path class="st0" d="M19.1,72c-5.5-7-9.6-10.9-9.9-10.5C8.4,62.1,17.9,74,27.9,91.8h4.4C27.8,83.8,23.1,77.1,19.1,72z"></path> <path class="st0" d="M30.7,54.1c4.1-11.4,8.8-21.3,13.1-29.4C45.9,20.6,47.9,17,50,14c2-3,4-5.4,5.8-7.1c3.6-3.5,6.3-4.7,6.2-5 c-0.1-0.1-0.8,0-2,0.6c-1.3,0.5-3.1,1.6-5.1,3.2c-2.1,1.7-4.3,4-6.6,7s-4.5,6.6-6.8,10.6c-4.7,8-9.7,18-14,29.5 c-4.4,11.5-8,24.7-9.7,38.9c0,0,0,0,0,0.1h4C23.2,78.1,26.6,65.3,30.7,54.1z"></path> <path class="st0" d="M89,55.4c-3.1,0.9-7.6,2.3-12.8,5.1c-2.6,1.4-5.3,3.1-8,5.4S63,71,60.8,74.2c-2.2,3.3-4.1,6.8-5.9,10.6 c-1,2.2-1.9,4.5-2.6,6.9h4.1c0.6-1.8,1.2-3.6,2-5.3c1.6-3.6,3.5-7.1,5.4-10.2c2-3.1,4.2-5.7,6.6-7.9c2.4-2.2,4.9-4,7.2-5.4 c4.8-2.9,9-4.7,11.9-6s4.5-2,4.5-2.3C93.9,54.3,92.1,54.6,89,55.4z"></path> <path class="st0" d="M44.9,82.7c-2.2-3.4-4.5-6.4-6.9-9s-4.8-4.9-7.2-6.8c-4.8-3.8-9.5-5.7-12.8-6.4c-3.4-0.7-5.3-0.3-5.3-0.1 c0,0.3,1.8,0.5,4.8,1.6s7.2,3.2,11.4,7.1c2.2,1.9,4.3,4.2,6.5,6.8c2.2,2.6,4.3,5.5,6.3,8.8c1.4,2.2,2.6,4.6,3.7,7.1h4.2 C48.3,88.5,46.6,85.4,44.9,82.7z"></path> <path class="st0" d="M49.8,72.3c-3-8.6-6.2-16-9-22.3c-1.4-3.1-2.7-5.9-3.9-8.3c-1.2-2.5-2.6-4.5-4.1-5.9 c-0.7-0.7-1.5-1.2-2.2-1.6c-0.7-0.3-1.3-0.6-1.9-0.7c-0.6-0.1-1.1,0.1-1.3,0.3c-0.2,0.2-0.3,0.4-0.2,0.4c0.1,0.1,0.5-0.3,1.3,0.1 c0.4,0.1,0.9,0.5,1.4,0.9c0.6,0.4,1.1,1,1.7,1.6c1.2,1.4,2.2,3.3,3.2,5.8s2.1,5.4,3.3,8.5c2.5,6.3,5.4,13.8,8.1,22.3 c1.8,5.7,3.4,11.8,4.6,18.3h4C53.7,84.8,51.8,78.3,49.8,72.3z"></path> </g> </g> </svg> 