<?xml version="1.0" encoding="UTF-8"?> <!-- Generator: Adobe Illustrator 22.1.0, SVG Export Plug-In . SVG Version: 6.00 Build 0) --> <svg xmlns="http://www.w3.org/2000/svg" xmlns:xlink="http://www.w3.org/1999/xlink" id="Layer_1" x="0px" y="0px" viewBox="0 0 100 125" style="enable-background:new 0 0 100 125;" xml:space="preserve"> <metadata><?xpacket begin="﻿" id="W5M0MpCehiHzreSzNTczkc9d"?> <?xpacket end="w"?></metadata> <style type="text/css"> .st0{fill:#076359;} </style> <g> <g> <path class="st0" d="M57.9,21.5C45,21.5,34.5,32,34.5,44.9c0,3.7,0.9,7.2,2.4,10.4L20.9,71.3c0,0-0.1,0.1-0.1,0.2 c-0.7,0.8-0.9,2-0.6,3.3c0.3,1.2,1,2.5,2.1,3.6c1.5,1.5,3.2,2.2,4.7,2.2c0.9,0,1.7-0.3,2.3-0.9l0,0c0,0,0,0,0,0l15.5-15.5 c3.7,2.5,8.3,4,13.1,4c12.9,0,23.4-10.5,23.4-23.4C81.2,32,70.8,21.5,57.9,21.5z M77.6,53H76v-5.5h3.1 C78.8,49.4,78.4,51.3,77.6,53z M75,45.5c-0.6,0-1,0.4-1,1V53h-3v-7.5c0-0.3-0.1-0.5-0.3-0.7l-1.6-1.7l4.5-3.6h4.6 c0.1,0,0.2,0,0.3-0.1c0.5,1.7,0.7,3.6,0.7,5.4c0,0.2,0,0.4,0,0.6H75z M52.2,57.5v-8h4v8H52.2z M57.2,47.5h-6c-0.6,0-1,0.4-1,1v9 h-3V45.9l1.4-1.4c0.1,0,0.2-0.1,0.2-0.2c0.1-0.1,0.1-0.2,0.2-0.3l3.6-3.6h11.2l5.2,5.4v11.6H58.2v-9 C58.2,47.9,57.8,47.5,57.2,47.5z M38.1,53c-0.4-1.1-0.8-2.2-1.1-3.4h4.1c0.6,0,1-0.4,1-1v-4.3c0-0.6-0.4-1-1-1h-4.6 c0.1-1.3,0.3-2.5,0.6-3.7h5.7l3.8,3.9l-1.2,1.2c-0.2,0.2-0.3,0.4-0.3,0.7V53h-7C38.2,53,38.2,53,38.1,53z M36.5,45.3h3.6v2.3h-3.5 C36.6,46.9,36.5,46.1,36.5,45.3z M77.9,37.5h-4.7c-0.2,0-0.4,0.1-0.6,0.2l-4.9,3.9L65,38.8c-0.2-0.2-0.4-0.3-0.7-0.3h-2.5l6-5h8.2 C76.7,34.8,77.4,36.1,77.9,37.5z M58.6,38.5h-6.4c-0.3,0-0.5,0.1-0.7,0.3l-3.4,3.4l-3.4-3.5l5.7-5.9h7.2l3.9,3.3L58.6,38.5z M57.9,23.5c6.7,0,12.7,3.1,16.6,8h-7.2c-0.2,0-0.5,0.1-0.6,0.2l-3.6,3L58.6,31c-0.2-0.2-0.4-0.2-0.6-0.2h-8 c-0.3,0-0.5,0.1-0.7,0.3l-6.4,6.6h-5.1C40.7,29.4,48.6,23.5,57.9,23.5z M27.9,78.3L27.9,78.3c-0.7,0.7-2.6,0.3-4.2-1.3 c-0.8-0.8-1.4-1.7-1.6-2.6c-0.2-0.7-0.1-1.3,0.2-1.6c0,0,0-0.1,0.1-0.1l15.6-15.6c1.4,2.3,3.2,4.3,5.2,6L27.9,78.3z M57.9,66.3 c-8.1,0-15.2-4.6-18.8-11.3h6.2v3.5c0,0.6,0.4,1,1,1H70c0.6,0,1-0.4,1-1V55h5.7C73.1,61.7,66,66.3,57.9,66.3z"></path> <path class="st0" d="M61.2,53.5h4c0.6,0,1-0.4,1-1v-4c0-0.6-0.4-1-1-1h-4c-0.6,0-1,0.4-1,1v4C60.2,53.1,60.7,53.5,61.2,53.5z M62.2,49.5h2v2h-2V49.5z"></path> </g> </g> </svg> 