<?xml version="1.0" encoding="UTF-8"?> <!-- Generator: Adobe Illustrator 22.1.0, SVG Export Plug-In . SVG Version: 6.00 Build 0) --> <svg xmlns="http://www.w3.org/2000/svg" xmlns:xlink="http://www.w3.org/1999/xlink" id="Layer_1" x="0px" y="0px" viewBox="0 0 257 265" style="enable-background:new 0 0 257 265;" xml:space="preserve"> <style type="text/css"> .st0{fill:#FFFFFF;} </style> <g> <path class="st0" d="M239.2,231c0,9.2-7.7,16.9-16.9,16.9H36.6c-9.2,0-16.9-7.7-16.9-16.9V62.1c0-9.2,7.7-16.9,16.9-16.9h16.9V32.6 c0-11.6,9.5-21.1,21.1-21.1H83c11.6,0,21.1,9.5,21.1,21.1v12.7h50.7V32.6c0-11.6,9.5-21.1,21.1-21.1h8.4c11.6,0,21.1,9.5,21.1,21.1 v12.7h16.9c9.2,0,16.9,7.7,16.9,16.9V231z M74.6,133.9v-38h-38v38H74.6z M74.6,184.5v-42.2h-38v42.2H74.6z M74.6,231v-38h-38v38 H74.6z M87.2,32.6c0-2.2-2-4.2-4.2-4.2h-8.4c-2.2,0-4.2,2-4.2,4.2v38c0,2.2,2,4.2,4.2,4.2H83c2.2,0,4.2-2,4.2-4.2V32.6z M125.2,133.9v-38H83v38H125.2z M125.2,184.5v-42.2H83v42.2H125.2z M125.2,231v-38H83v38H125.2z M175.9,133.9v-38h-42.2v38H175.9z M175.9,184.5v-42.2h-42.2v42.2H175.9z M175.9,231v-38h-42.2v38H175.9z M188.6,32.6c0-2.2-2-4.2-4.2-4.2h-8.4c-2.2,0-4.2,2-4.2,4.2 v38c0,2.2,2,4.2,4.2,4.2h8.4c2.2,0,4.2-2,4.2-4.2V32.6z M222.3,133.9v-38h-38v38H222.3z M222.3,184.5v-42.2h-38v42.2H222.3z M222.3,231v-38h-38v38H222.3z"></path> </g> </svg> 