<?xml version="1.0" encoding="UTF-8"?> <!-- Generator: Adobe Illustrator 22.1.0, SVG Export Plug-In . SVG Version: 6.00 Build 0) --> <svg xmlns="http://www.w3.org/2000/svg" xmlns:xlink="http://www.w3.org/1999/xlink" id="Layer_1" x="0px" y="0px" viewBox="0 0 91 92.8" style="enable-background:new 0 0 91 92.8;" xml:space="preserve"> <style type="text/css"> .st0{fill:#FFFFFF;} </style> <g> <path class="st0" d="M49.8,54.6c-1.1-0.4-2.3,0.3-2.6,1.4c-0.8,2.5-3.7,4.1-5.4,4.7c0-0.2,0.1-0.4,0.1-0.6c0.1-0.8,0.2-1.5,0.1-2.3 c-0.1-0.6-0.4-1.2-1-1.5c-0.5-0.3-1.2-0.4-1.8-0.2c-1.6,0.5-2.6,1.9-3.5,3.1c-0.2,0.3-0.5,0.7-0.8,1c0-0.6,0-1.3,0-1.7 c0-0.6,0.1-1.2,0-1.6c0-0.8-0.5-1.4-1.2-1.8c-0.7-0.3-1.5-0.3-2.1,0.1c-0.9,0.6-1.9,1.5-3.1,2.6c-2,1.8-5.7,5.2-7.4,4.7 c-0.4-0.1-0.8-0.5-1.1-1.2c3.4-2.5,7-7.4,7.2-11.3c0.1-1.9-0.5-3.5-1.8-4.6c-0.3-0.2-0.6-0.4-1-0.5c-2.1-0.4-4.2,0.3-5.8,2 c-2.8,3-3.9,8.9-3.6,12.5c-3.4,2-6.7,3.2-6.8,3.2c-1.1,0.4-1.6,1.6-1.2,2.7c0.4,1.1,1.6,1.6,2.7,1.2c0.2-0.1,3.2-1.2,6.6-3.1 c0.9,1.6,2.1,2.6,3.5,3c0.5,0.1,1,0.2,1.4,0.2c3.2,0,6.5-2.8,9.3-5.3c0.1,0.8,0.5,1.6,1,2.2c0.6,0.7,1.5,1.1,2.5,1.2 c1.5,0.1,2.6-0.7,3.4-1.7c0.1,0.3,0.3,0.6,0.6,0.8c0.5,0.5,1.3,1.1,2.7,1c2.6-0.1,8.4-2.6,10-7.8C51.5,56.1,50.9,54.9,49.8,54.6z M19.5,56.2c0.3-2.4,1.1-5.1,2.4-6.5c0.5-0.5,0.8-0.7,1.2-0.8c0.1,0.2,0.1,0.4,0.1,0.8C23.1,51.6,21.4,54.2,19.5,56.2z"></path> <path class="st0" d="M62,68.8c0.3,0.1,0.6,0.2,0.9,0.2c0.8,0,1.5-0.4,1.9-1.2l13-27.9c0.5-1.1,0-2.3-1-2.8c-1.1-0.5-2.3,0-2.8,1 L61,66C60.5,67.1,61,68.3,62,68.8z"></path> <path class="st0" d="M2.6,90.1H53c0.1,0,0.1,0,0.2,0c0.1,0,0.2,0,0.3,0c0.4,0,0.8-0.1,1.2-0.4l12.8-8.8c0.1-0.1,0.2-0.1,0.2-0.2 c0.1,0,0.1-0.1,0.2-0.1c0.1-0.2,0.2-0.3,0.3-0.5c0,0,0,0,0,0l20.1-44.2c0.1-0.1,0.2-0.2,0.2-0.3c0-0.1,0-0.2,0.1-0.3l1.7-3.8 c0.9-2,1-4.3,0.2-6.4c-0.8-2.1-2.4-3.7-4.4-4.6l-3.2-1.4c-1.1-0.5-2.2-0.7-3.3-0.7c-3.3,0-6.3,1.9-7.6,4.9L63,42.7V15.9 c0,0,0-0.1,0-0.1c0-0.2-0.1-0.4-0.1-0.6c0-0.1,0-0.1-0.1-0.2c-0.1-0.2-0.2-0.4-0.4-0.6l-12.5-12c-0.2-0.2-0.4-0.3-0.6-0.4 c-0.1,0-0.1,0-0.2-0.1c-0.2-0.1-0.3-0.1-0.5-0.1c0,0-0.1,0-0.1,0H2.6C1.4,1.9,0.5,2.8,0.5,4V88C0.5,89.2,1.4,90.1,2.6,90.1z M55.1,84.3l-1-8.2l7.8,3.4L55.1,84.3z M75.6,25.1c0.9-2,3.4-3,5.4-2.1l3.2,1.4c1,0.4,1.8,1.3,2.2,2.3c0.4,1,0.4,2.1-0.1,3.1 l-1,2.2l-10.7-4.7L75.6,25.1z M72.9,31l10.7,4.7L65.2,76.4l-6.6-2.9l-4.2-1.8L72.9,31z M50.5,8.9l2.1,2l3,2.9h-3.2 c-1.1,0-1.9-0.9-1.9-1.9V8.9z M4.7,6.1h41.7v5.9c0,3.4,2.7,6.1,6.1,6.1h6.4v33.9l-9.1,20c0,0,0,0,0,0c-0.1,0.2-0.1,0.5-0.2,0.7 c0,0.1,0,0.1,0,0.2c0,0.1,0,0.1,0,0.2l1.5,12.9H4.7V6.1z"></path> <path class="st0" d="M16.5,28.4h16.7c1.2,0,2.1-0.9,2.1-2.1s-0.9-2.1-2.1-2.1H16.5c-1.2,0-2.1,0.9-2.1,2.1 C14.4,27.5,15.4,28.4,16.5,28.4z"></path> <path class="st0" d="M16.5,36.3h6.3c1.2,0,2.1-0.9,2.1-2.1s-0.9-2.1-2.1-2.1h-6.3c-1.2,0-2.1,0.9-2.1,2.1 C14.4,35.3,15.4,36.3,16.5,36.3z"></path> </g> </svg> 