<?xml version="1.0" encoding="utf-8"?>
<!-- Generator: Adobe Illustrator 22.0.1, SVG Export Plug-In . SVG Version: 6.00 Build 0)  -->
<svg version="1.1" id="Layer_1" xmlns="http://www.w3.org/2000/svg" xmlns:xlink="http://www.w3.org/1999/xlink" x="0px" y="0px"
	 viewBox="0 0 22 21" style="enable-background:new 0 0 22 21;" xml:space="preserve">
<style type="text/css">
	.st0{fill:#076359;}
</style>
<g>
	<g transform="translate(-24.000000, -264.000000)">
		<g transform="translate(25.000000, 265.000000)">
			<path class="st0" d="M0,1v18h20V1H0z M-0.5,0h21C20.8,0,21,0.2,21,0.5v19c0,0.3-0.2,0.5-0.5,0.5h-21C-0.8,20-1,19.8-1,19.5v-19
				C-1,0.2-0.8,0-0.5,0z"/>
			<path class="st0" d="M-0.5,5h21C20.8,5,21,4.8,21,4.5S20.8,4,20.5,4h-21C-0.8,4-1,4.2-1,4.5S-0.8,5-0.5,5z"/>
			<rect x="8" y="7" class="st0" width="1" height="1"/>
			<rect x="11" y="7" class="st0" width="1" height="1"/>
			<rect x="14" y="7" class="st0" width="1" height="1"/>
			<rect x="17" y="7" class="st0" width="1" height="1"/>
			<rect x="11" y="10" class="st0" width="1" height="1"/>
			<rect x="14" y="10" class="st0" width="1" height="1"/>
			<rect x="17" y="10" class="st0" width="1" height="1"/>
			<rect x="2" y="13" class="st0" width="1" height="1"/>
			<rect x="8" y="13" class="st0" width="1" height="1"/>
			<rect x="11" y="13" class="st0" width="1" height="1"/>
			<rect x="14" y="13" class="st0" width="1" height="1"/>
			<rect x="17" y="13" class="st0" width="1" height="1"/>
			<rect x="5" y="16" class="st0" width="1" height="1"/>
			<rect x="2" y="16" class="st0" width="1" height="1"/>
			<rect x="8" y="16" class="st0" width="1" height="1"/>
			<rect x="11" y="16" class="st0" width="1" height="1"/>
			<rect x="14" y="16" class="st0" width="1" height="1"/>
			<g transform="translate(3.000000, 8.000000)">
				<path class="st0" d="M4,1h1.5C5.8,1,6,1.2,6,1.5v2C6,3.8,5.8,4,5.5,4H4v1.5C4,5.8,3.8,6,3.5,6h-2C1.2,6,1,5.8,1,5.5V4h-1.5
					C-0.8,4-1,3.8-1,3.5v-2C-1,1.2-0.8,1-0.5,1H1v-1.5C1-0.8,1.2-1,1.5-1h2C3.8-1,4-0.8,4-0.5V1z M5,2H3.5C3.2,2,3,1.8,3,1.5V0H2
					v1.5C2,1.8,1.8,2,1.5,2H0v1h1.5C1.8,3,2,3.2,2,3.5V5h1V3.5C3,3.2,3.2,3,3.5,3H5V2z"/>
			</g>
			<path class="st0" d="M3-0.5v2C3,1.8,3.2,2,3.5,2S4,1.8,4,1.5v-2C4-0.8,3.8-1,3.5-1S3-0.8,3-0.5z"/>
			<path class="st0" d="M16-0.5v2C16,1.8,16.2,2,16.5,2S17,1.8,17,1.5v-2C17-0.8,16.8-1,16.5-1S16-0.8,16-0.5z"/>
		</g>
	</g>
</g>
</svg>
