<?xml version="1.0" encoding="utf-8"?>
<!-- Generator: Adobe Illustrator 22.0.1, SVG Export Plug-In . SVG Version: 6.00 Build 0)  -->
<svg version="1.1" id="Layer_1" xmlns="http://www.w3.org/2000/svg" xmlns:xlink="http://www.w3.org/1999/xlink" x="0px" y="0px"
	 viewBox="0 0 80.1 80" style="enable-background:new 0 0 80.1 80;" xml:space="preserve">
<style type="text/css">
	.st0{fill:#076359;}
</style>
<path class="st0" d="M39.1,13.9c0.2,0.1,0.4,0.2,0.6,0.2c0.2,0,0.4-0.1,0.6-0.2c0.2-0.1,4.1-3.1,4.1-6.9s-4-6.7-4.2-6.8
	c-0.4-0.3-0.8-0.3-1.2,0c-0.2,0.1-4.1,3.1-4.1,6.9C35,10.9,39,13.8,39.1,13.9z M39.6,2.3c1,0.8,2.7,2.7,2.7,4.7s-1.7,3.9-2.7,4.8
	c-1-0.8-2.7-2.7-2.7-4.7C37,5,38.7,3.2,39.6,2.3z"/>
<path class="st0" d="M11.2,12.5c0,0.2-0.7,5.1,2,7.8c1.7,1.7,4.3,2,6,2c1,0,1.7-0.1,1.8-0.1c0.4-0.1,0.8-0.4,0.8-0.8
	c0-0.2,0.7-5.1-2-7.8c-2.7-2.7-7.6-1.9-7.8-1.9C11.6,11.8,11.2,12.1,11.2,12.5z M13.1,13.6c1.3-0.1,3.8,0,5.3,1.4
	c1.5,1.4,1.5,4,1.5,5.3c-1.5,0.1-3.9-0.1-5.3-1.4C13.1,17.4,13,14.9,13.1,13.6z"/>
<path class="st0" d="M7,35.6c-3.8,0-6.7,4-6.8,4.2c-0.3,0.4-0.3,0.8,0,1.2c0.1,0.2,3.1,4.1,6.9,4.1l0,0c3.8,0,6.7-4,6.8-4.2
	c0.3-0.4,0.3-0.8,0-1.2C13.8,39.5,10.9,35.6,7,35.6C7.1,35.6,7,35.6,7,35.6z M11.8,40.3C10.8,41.4,9,43,7.1,43l0,0
	c-2,0-3.9-1.7-4.8-2.7c1-1.1,2.8-2.7,4.7-2.7l0,0C9.1,37.6,11,39.4,11.8,40.3z"/>
<path class="st0" d="M21.3,58.2c-0.2,0-5.1-0.7-7.8,2c-2.7,2.7-1.9,7.6-1.9,7.8c0.1,0.4,0.4,0.8,0.8,0.8c0.1,0,0.7,0.1,1.6,0.1
	c1.7,0,4.4-0.3,6.2-2.1c2.7-2.7,1.9-7.6,1.9-7.8C22.1,58.6,21.8,58.3,21.3,58.2z M18.9,65.4c-1.4,1.5-4,1.5-5.3,1.5
	c-0.1-1.3,0-3.8,1.4-5.3s4-1.5,5.3-1.5C20.4,61.4,20.3,64,18.9,65.4z"/>
<path class="st0" d="M35.6,73c0,3.8,4,6.7,4.2,6.8c0.2,0.1,0.4,0.2,0.6,0.2c0.2,0,0.4-0.1,0.6-0.2c0.2-0.1,4.1-3.1,4.1-6.9
	s-4-6.7-4.2-6.8c-0.4-0.3-0.8-0.2-1.2,0C39.5,66.2,35.6,69.2,35.6,73z M40.3,68.2c1,0.8,2.7,2.7,2.7,4.7s-1.7,3.9-2.7,4.8
	c-1-0.8-2.7-2.7-2.7-4.7C37.6,70.9,39.3,69,40.3,68.2z"/>
<path class="st0" d="M59,57.8c-0.4,0.1-0.8,0.4-0.8,0.8c0,0.2-0.7,5.1,2,7.8c1.7,1.7,4.3,2,6,2c1,0,1.7-0.1,1.8-0.1
	c0.4-0.1,0.8-0.4,0.8-0.8c0-0.2,0.7-5.1-2-7.8C64.1,57,59.2,57.8,59,57.8z M66.9,66.4c-1.3,0.1-3.8,0-5.3-1.4s-1.5-4-1.5-5.3
	c1.5-0.1,3.9,0.1,5.3,1.4C66.9,62.6,67,65.1,66.9,66.4z"/>
<path class="st0" d="M79.8,39c-0.1-0.2-3.1-4.1-6.9-4.1l0,0c-3.8,0-6.7,4-6.8,4.2c-0.3,0.4-0.3,0.8,0,1.2c0.1,0.2,3.1,4.1,6.9,4.1
	l0,0c3.8,0,6.7-4,6.8-4.2C80.1,39.9,80.1,39.4,79.8,39z M73,42.4C72.9,42.4,72.9,42.4,73,42.4c-2.1,0-3.9-1.7-4.8-2.7
	c1-1.1,2.8-2.7,4.7-2.7l0,0c2,0,3.9,1.7,4.8,2.7C76.7,40.7,74.9,42.4,73,42.4z"/>
<path class="st0" d="M59.7,13.2c-2.7,2.7-1.9,7.6-1.9,7.8c0.1,0.4,0.4,0.8,0.8,0.8c0.1,0,0.7,0.1,1.6,0.1c1.7,0,4.4-0.3,6.2-2.1
	c2.7-2.7,1.9-7.6,1.9-7.8c-0.1-0.4-0.4-0.8-0.8-0.8C67.3,11.1,62.4,10.5,59.7,13.2z M66.4,13.1c0.1,1.3,0,3.8-1.4,5.3
	c-1.4,1.5-4,1.5-5.3,1.5c-0.1-1.3,0-3.8,1.4-5.3C62.6,13.1,65.1,13,66.4,13.1z"/>
<path class="st0" d="M43.8,30.3c0.1,0,0.2,0.1,0.4,0.1c0.4,0,0.8-0.2,0.9-0.6l1.6-4c0.5,0.1,1,0.2,1.4,0.2c2.6,0,5.1-1.6,6.2-4.2
	c1.2-3.1-1.4-10.7-1.8-11.6c-0.1-0.3-0.3-0.5-0.6-0.6s-0.6-0.1-0.8,0c-0.8,0.4-7.9,4.1-9.2,7.3C40.8,20,42,23.4,44.8,25l-1.6,4
	C43,29.6,43.3,30.1,43.8,30.3z M52.4,21c-0.8,2-2.9,3.2-5,2.9l4.1-10.4C52.3,16.3,53,19.6,52.4,21z M43.8,17.6
	c0.5-1.4,3.3-3.4,5.8-4.9l-4.1,10.4C43.8,22,43,19.7,43.8,17.6z"/>
<path class="st0" d="M37.3,22.1c0.6-1.6,0.6-3.4-0.1-5.1c-1.3-3.1-8.6-6.5-9.4-6.9c-0.3-0.1-0.6-0.1-0.8,0s-0.5,0.3-0.6,0.6
	c-0.3,0.9-2.7,8.5-1.3,11.6c1.1,2.5,3.5,4,6.1,4c0.6,0,1.1-0.1,1.7-0.2l1.7,3.9c0.2,0.4,0.5,0.6,0.9,0.6c0.1,0,0.3,0,0.4-0.1
	c0.5-0.2,0.7-0.8,0.5-1.3l-1.7-4C35.8,24.5,36.8,23.4,37.3,22.1z M26.9,21.5c-0.6-1.4-0.1-4.7,0.7-7.5L32,24.2
	C29.9,24.6,27.8,23.5,26.9,21.5z M35.4,21.3c-0.3,0.8-0.9,1.5-1.6,2l-4.5-10.2c2.6,1.4,5.4,3.3,6,4.7C35.8,18.9,35.9,20.2,35.4,21.3
	z"/>
<path class="st0" d="M9.6,28.1c-0.1,0.3-0.1,0.6,0,0.8c0.4,0.8,4.1,7.9,7.3,9.2c0.8,0.3,1.6,0.5,2.4,0.5c0.9,0,1.8-0.2,2.6-0.6
	c1.3-0.6,2.4-1.5,3.1-2.7l4,1.6c0.1,0,0.2,0.1,0.4,0.1c0.4,0,0.8-0.2,0.9-0.6c0.2-0.5-0.1-1.1-0.6-1.3l-4-1.6
	c0.3-1.4,0.2-2.8-0.4-4.1c-0.7-1.6-2-2.9-3.6-3.5l0,0c-3.1-1.2-10.7,1.4-11.6,1.8C9.9,27.6,9.7,27.8,9.6,28.1z M21.2,36.1
	c-1.1,0.5-2.4,0.5-3.5,0.1c-1.4-0.5-3.4-3.3-4.9-5.8l10.4,4.1C22.7,35.2,22,35.7,21.2,36.1z M21,27.6L21,27.6c1.1,0.5,2,1.3,2.5,2.4
	c0.4,0.8,0.5,1.7,0.3,2.6l-10.4-4.1C16.3,27.7,19.6,27,21,27.6z"/>
<path class="st0" d="M26,47.2l3.9-1.7c0.5-0.2,0.7-0.8,0.5-1.3s-0.8-0.7-1.3-0.5l-3.9,1.7c-1.7-2.7-5.2-3.9-8.2-2.5
	c-3.1,1.3-6.5,8.6-6.9,9.4c-0.1,0.3-0.1,0.6,0,0.8c0.1,0.3,0.3,0.5,0.6,0.6c0.7,0.2,5.5,1.7,9.1,1.7c1,0,1.9-0.1,2.5-0.4
	C25.3,53.6,26.8,50.3,26,47.2z M17.8,44.6c2-0.9,4.3-0.2,5.6,1.5l-10.2,4.5C14.6,48,16.4,45.2,17.8,44.6z M21.5,53.1
	c-1.4,0.6-4.7,0.1-7.5-0.7L24.2,48C24.6,50.1,23.5,52.2,21.5,53.1z"/>
<path class="st0" d="M28.1,70.4c0.1,0,0.2,0.1,0.4,0.1s0.3,0,0.5-0.1c0.8-0.4,7.9-4.1,9.2-7.3c1.2-3.1-0.1-6.5-2.8-8.1l1.6-4
	c0.2-0.5-0.1-1.1-0.6-1.3s-1.1,0.1-1.3,0.6l-1.6,4c-3.1-0.7-6.4,0.9-7.6,4c-1.2,3.1,1.4,10.7,1.8,11.6
	C27.6,70.1,27.8,70.3,28.1,70.4z M36.2,62.4c-0.5,1.4-3.3,3.4-5.8,4.9l4.1-10.4C36.2,58,37,60.3,36.2,62.4z M27.6,59
	c0.8-2,2.9-3.2,5-2.9l-4.1,10.4C27.7,63.7,27,60.4,27.6,59z"/>
<path class="st0" d="M52.6,70c0.1,0,0.3,0,0.4-0.1c0.3-0.1,0.5-0.3,0.6-0.6c0.3-0.9,2.7-8.5,1.3-11.6c-1.3-3-4.7-4.6-7.8-3.7l-1.6-4
	c-0.2-0.5-0.8-0.7-1.3-0.5s-0.7,0.8-0.5,1.3l1.7,4c-1.2,0.7-2.1,1.8-2.6,3.2c-0.6,1.6-0.6,3.4,0.1,5.1c1.3,3.1,8.6,6.5,9.4,6.9
	C52.4,70,52.5,70,52.6,70z M48.9,55.7c1.8,0,3.5,1,4.2,2.8c0.6,1.4,0.1,4.7-0.7,7.5L48,55.8C48.3,55.8,48.6,55.7,48.9,55.7z
	 M44.6,62.2c-0.5-1.1-0.5-2.4-0.1-3.5c0.3-0.8,0.9-1.5,1.6-2l4.5,10.2C48,65.4,45.2,63.6,44.6,62.2z"/>
<path class="st0" d="M58.3,54.3L58.3,54.3c0.6,0.2,1.3,0.3,2.1,0.3c3.6,0,8.7-1.8,9.4-2.1c0.3-0.1,0.5-0.3,0.6-0.6s0.1-0.6,0-0.8
	c-0.4-0.8-4.1-7.9-7.3-9.2c-1.6-0.6-3.4-0.6-5.1,0.1c-1.3,0.6-2.4,1.5-3.1,2.7l-4-1.6c-0.5-0.2-1.1,0-1.3,0.6
	c-0.2,0.5,0.1,1.1,0.6,1.3l4,1.6c-0.3,1.4-0.2,2.8,0.4,4.1C55.3,52.4,56.6,53.6,58.3,54.3z M58.8,43.9c0.6-0.3,1.2-0.4,1.8-0.4
	c0.6,0,1.1,0.1,1.7,0.3c1.4,0.5,3.4,3.3,4.9,5.8l-10.4-4.1C57.3,44.8,58,44.3,58.8,43.9z M56.1,47.4l10.4,4.1
	c-2.8,0.8-6.1,1.5-7.5,0.9l0,0c-1.1-0.5-2-1.3-2.5-2.4C56.1,49.1,56,48.3,56.1,47.4z"/>
<path class="st0" d="M50.4,36.5c0.1,0,0.3,0,0.4-0.1l3.9-1.7c1.2,1.9,3.4,3.1,5.6,3.1c0.9,0,1.8-0.2,2.6-0.6
	c3.1-1.3,6.5-8.6,6.9-9.4c0.1-0.3,0.1-0.6,0-0.8c-0.1-0.3-0.3-0.5-0.6-0.6c-0.9-0.3-8.5-2.7-11.6-1.3c-3,1.3-4.6,4.6-3.7,7.7
	L50,34.5c-0.5,0.2-0.7,0.8-0.5,1.3C49.7,36.2,50.1,36.5,50.4,36.5z M62.2,35.4c-2,0.9-4.3,0.2-5.6-1.5l10.2-4.5
	C65.4,32,63.6,34.8,62.2,35.4z M58.5,26.9c0.4-0.2,1-0.3,1.7-0.3c1.6,0,3.9,0.4,5.8,0.9L55.8,32C55.4,29.9,56.5,27.8,58.5,26.9z"/>
</svg>
