<?xml version="1.0" encoding="utf-8"?>
<!-- Generator: Adobe Illustrator 22.0.1, SVG Export Plug-In . SVG Version: 6.00 Build 0)  -->
<svg version="1.1" id="Layer_1" xmlns="http://www.w3.org/2000/svg" xmlns:xlink="http://www.w3.org/1999/xlink" x="0px" y="0px"
	 viewBox="0 0 75.6 75.6" style="enable-background:new 0 0 75.6 75.6;" xml:space="preserve">
<style type="text/css">
	.st0{fill:#076359;}
</style>
<path class="st0" d="M39.2,74.4l2-13.3l0,0c4.8-0.7,9.5-2.9,13.3-6.6c3.7-3.7,5.9-8.4,6.6-13.2v-0.1l13.3-2c0.7-0.1,1.2-0.7,1.2-1.4
	c0-0.7-0.5-1.3-1.2-1.4l-13.3-2C59.6,24.1,51.5,16,41.2,14.5l-2-13.3C39.1,0.5,38.5,0,37.8,0c-0.7,0-1.3,0.5-1.4,1.2l-2,13.3h-0.1
	c-4.8,0.7-9.5,2.9-13.2,6.6s-5.9,8.4-6.6,13.2v0.1l-13.3,2C0.5,36.5,0,37.1,0,37.8c0,0.7,0.5,1.3,1.2,1.4l13.3,2
	c1.5,10.3,9.6,18.4,19.9,19.9l2,13.3c0.1,0.7,0.7,1.2,1.4,1.2C38.5,75.5,39.1,75.1,39.2,74.4z M54.8,49.8c-0.3,0.4-0.6,0.8-0.9,1.2
	c0,0.1-0.1,0.1-0.1,0.2c0,0-0.1,0.1-0.1,0.2l0,0c-0.1,0.1-0.1,0.1-0.2,0.2l-4.3-4.3c-0.5-0.5-1.4-0.5-1.9,0s-0.5,1.4,0,1.9l4.3,4.3
	c-0.2,0.2-0.5,0.4-0.7,0.6c-0.1,0-0.1,0.1-0.2,0.1c-0.3,0.2-0.6,0.5-0.9,0.7c-0.1,0-0.1,0.1-0.2,0.1c-0.3,0.2-0.6,0.4-0.9,0.6
	c-0.1,0.1-0.2,0.1-0.3,0.2c-2,1.2-4.3,2-6.6,2.5l2-14.5l14.4-2.2C57.7,44.6,56.5,47.4,54.8,49.8z M65,37.8l-21.9,3.4l-3.3-3.4
	l3.4-3.4L65,37.8z M50.7,21.5c0.2,0.2,0.4,0.3,0.6,0.5l0,0c0.1,0.1,0.1,0.1,0.2,0.2l-4.3,4.3c-0.5,0.5-0.5,1.4,0,1.9
	c0.3,0.3,0.6,0.4,1,0.4s0.7-0.1,1-0.4l4.3-4.3c0.2,0.2,0.3,0.4,0.5,0.6c0.1,0.2,0.3,0.3,0.4,0.5c1.9,2.5,3.3,5.5,3.9,8.8l-14.5-2.2
	l-2.2-14.4C45,18,48.1,19.4,50.7,21.5z M37.8,10.6l3.4,21.9l-3.4,3.3l-3.4-3.4L37.8,10.6z M20.6,26.1c0.3-0.4,0.6-0.9,1-1.3
	c0.1-0.2,0.3-0.4,0.5-0.5l0.1-0.1l4.3,4.3c0.3,0.3,0.6,0.4,1,0.4s0.7-0.1,1-0.4c0.5-0.5,0.5-1.4,0-2l-4.3-4.3
	c0.1-0.1,0.2-0.2,0.4-0.3l0,0c0.3-0.2,0.6-0.5,0.9-0.7c0.2-0.1,0.4-0.3,0.6-0.4c0.3-0.2,0.5-0.4,0.8-0.5c0.2-0.1,0.3-0.2,0.5-0.3
	c0.3-0.2,0.5-0.3,0.8-0.5c1.8-1,3.8-1.7,6-2.1l-2.4,14.4L17.4,34C17.9,31.1,19,28.4,20.6,26.1z M10.6,37.8l21.9-3.4l3.3,3.4
	l-3.4,3.4L10.6,37.8z M25.1,54.3c-0.1-0.1-0.3-0.2-0.4-0.3c-0.2-0.2-0.4-0.3-0.6-0.5l4.3-4.3c0.5-0.5,0.5-1.4,0-1.9s-1.4-0.5-1.9,0
	l-4.3,4.3c-0.1-0.1-0.2-0.2-0.3-0.4l0,0c-0.1-0.1-0.2-0.3-0.4-0.5c-0.1-0.2-0.3-0.4-0.4-0.5c-0.2-0.3-0.4-0.5-0.6-0.8
	c-0.1-0.2-0.3-0.4-0.4-0.6c-0.2-0.3-0.4-0.6-0.5-0.9c-1-1.9-1.8-4-2.2-6.2l14.4,2.1L34,58.2C30.7,57.7,27.6,56.2,25.1,54.3z
	 M34.4,43.1l3.4-3.3l3.4,3.4L37.8,65L34.4,43.1z"/>
</svg>
