<?xml version="1.0" encoding="utf-8"?>
<!-- Generator: Adobe Illustrator 22.0.1, SVG Export Plug-In . SVG Version: 6.00 Build 0)  -->
<svg version="1.1" id="Layer_1" xmlns="http://www.w3.org/2000/svg" xmlns:xlink="http://www.w3.org/1999/xlink" x="0px" y="0px"
	 viewBox="0 0 85.6 89.9" style="enable-background:new 0 0 85.6 89.9;" xml:space="preserve">
<style type="text/css">
	.st0{fill:#076359;}
</style>
<g>
	<g>
		<path class="st0" d="M18.4,62.8c-1.8-10.7-4.2-20.2-6.7-28.1c-2.5-7.8-5.1-14-7.4-18S0.2,10.8,0,10.9c-0.3,0.2,1,2.3,2.9,6.5
			c1.8,4.1,4,10.3,6.1,18.1s4.2,17.2,5.8,27.8c1.3,8.2,2.2,17.1,3,26.4h4C20.9,80.3,19.9,71.2,18.4,62.8z"/>
		<path class="st0" d="M37.9,66.1C39.1,56,41.2,47,43.8,39.8c2.6-7.2,5.8-12.6,8.2-16.1c2.5-3.5,4.1-5.3,3.9-5.5
			c-0.2-0.2-2.2,1.3-5.1,4.6c-2.9,3.3-6.6,8.7-9.6,16c-3.1,7.3-5.5,16.5-6.9,26.8c-1.1,7.5-1.5,15.7-1.3,24.2h4
			C36.6,81.5,37,73.5,37.9,66.1z"/>
		<path class="st0" d="M56.3,61.7c-1.4-10.3-3.8-19.5-6.9-26.8c-3-7.3-6.7-12.7-9.6-16c-2.9-3.3-4.9-4.8-5.1-4.6
			c-0.2,0.2,1.4,2,3.9,5.5s5.6,8.9,8.2,16.1c2.6,7.2,4.7,16.1,5.9,26.3c1,8.5,1.4,17.9,0.7,27.7h4C57.9,79.9,57.5,70.4,56.3,61.7z"
			/>
		<path class="st0" d="M68.5,85.4c-2.4-3.7-4.8-7.3-7.1-10.6C56.7,68.2,52,62.5,47.9,58c-2.1-2.3-3.9-4.3-5.7-6
			c-1.7-1.7-3.4-3.1-4.8-4.1c-2.9-2-4.8-2.5-4.9-2.3c-0.1,0.3,1.5,1.2,3.9,3.5c2.5,2.2,5.5,6,9.3,10.8S53.8,70.4,58.3,77
			c2.3,3.3,4.5,6.8,6.8,10.5c0.5,0.8,1,1.6,1.4,2.3H71C70.3,88.3,69.4,86.8,68.5,85.4z"/>
		<path class="st0" d="M63.8,47.9c4-13.6,7.5-21.6,7-21.9c-0.2-0.1-1.4,1.7-3.2,5.3s-4.1,8.9-6.4,15.7c-3.9,10.9-7.6,25.9-8.9,42.9
			h4C57.5,73.4,60.6,58.7,63.8,47.9z"/>
		<path class="st0" d="M10.7,70.1c-5.5-7-9.6-10.9-9.9-10.5C0,60.2,9.5,72.1,19.5,89.9h4.4C19.4,81.9,14.7,75.2,10.7,70.1z"/>
		<path class="st0" d="M22.3,52.2c4.1-11.4,8.8-21.3,13.1-29.4c2.1-4.1,4.1-7.7,6.2-10.7c2-3,4-5.4,5.8-7.1c3.6-3.5,6.3-4.7,6.2-5
			c-0.1-0.1-0.8,0-2,0.6c-1.3,0.5-3.1,1.6-5.1,3.2c-2.1,1.7-4.3,4-6.6,7s-4.5,6.6-6.8,10.6c-4.7,8-9.7,18-14,29.5
			c-4.4,11.5-8,24.7-9.7,38.9c0,0,0,0,0,0.1h4C14.8,76.2,18.2,63.4,22.3,52.2z"/>
		<path class="st0" d="M80.6,53.5c-3.1,0.9-7.6,2.3-12.8,5.1c-2.6,1.4-5.3,3.1-8,5.4s-5.2,5.1-7.4,8.3c-2.2,3.3-4.1,6.8-5.9,10.6
			c-1,2.2-1.9,4.5-2.6,6.9H48c0.6-1.8,1.2-3.6,2-5.3c1.6-3.6,3.5-7.1,5.4-10.2c2-3.1,4.2-5.7,6.6-7.9c2.4-2.2,4.9-4,7.2-5.4
			c4.8-2.9,9-4.7,11.9-6s4.5-2,4.5-2.3C85.5,52.4,83.7,52.7,80.6,53.5z"/>
		<path class="st0" d="M36.5,80.8c-2.2-3.4-4.5-6.4-6.9-9s-4.8-4.9-7.2-6.8c-4.8-3.8-9.5-5.7-12.8-6.4c-3.4-0.7-5.3-0.3-5.3-0.1
			c0,0.3,1.8,0.5,4.8,1.6s7.2,3.2,11.4,7.1c2.2,1.9,4.3,4.2,6.5,6.8c2.2,2.6,4.3,5.5,6.3,8.8c1.4,2.2,2.6,4.6,3.7,7.1h4.2
			C39.9,86.6,38.2,83.5,36.5,80.8z"/>
		<path class="st0" d="M41.4,70.4c-3-8.6-6.2-16-9-22.3c-1.4-3.1-2.7-5.9-3.9-8.3c-1.2-2.5-2.6-4.5-4.1-5.9
			c-0.7-0.7-1.5-1.2-2.2-1.6c-0.7-0.3-1.3-0.6-1.9-0.7c-0.6-0.1-1.1,0.1-1.3,0.3c-0.2,0.2-0.3,0.4-0.2,0.4c0.1,0.1,0.5-0.3,1.3,0.1
			c0.4,0.1,0.9,0.5,1.4,0.9c0.6,0.4,1.1,1,1.7,1.6c1.2,1.4,2.2,3.3,3.2,5.8s2.1,5.4,3.3,8.5c2.5,6.3,5.4,13.8,8.1,22.3
			c1.8,5.7,3.4,11.8,4.6,18.3h4C45.3,82.9,43.4,76.4,41.4,70.4z"/>
	</g>
</g>
</svg>
