<?xml version="1.0" encoding="utf-8"?>
<!-- Generator: Adobe Illustrator 22.0.1, SVG Export Plug-In . SVG Version: 6.00 Build 0)  -->
<svg version="1.1" id="Layer_1" xmlns="http://www.w3.org/2000/svg" xmlns:xlink="http://www.w3.org/1999/xlink" x="0px" y="0px"
	 viewBox="0 0 1386 238.1" style="enable-background:new 0 0 1386 238.1;" xml:space="preserve">
<style type="text/css">
	.st0{fill:#ECEDED;}
</style>
<title>gray_top</title>
<path class="st0" d="M1386,239.6L0,241.1V3.6c2,0,4,0,6-0.1c22.1-0.6,44.2-1.3,66.4-1.9c2.7-0.1,5.3-0.5,8-0.4
	c16.6,0.5,33.3,0.4,49.8,1.8c24.8,2,49.6,5.7,74.4,7.5c29.4,2.2,58.9,3.2,88.3,4.7c15.5,0.8,31,2.4,46.4,1.7
	c19-0.8,37.5,1.8,56.3,3.2c23.2,1.8,46,6.6,69.5,6.5c36.1-0.1,72.3,2.1,108.4,3.3c50.5,1.8,101,0.2,151.4-1.9
	c14.1-0.6,28.3-1.2,42.4-1.3c10.8-0.1,21.6,0.8,32.3,0.8c4.9,0,9.9-1.6,14.8-1.8c37.4-1.5,74.9-2.8,112.3-4.1c8-0.3,16-0.2,24-0.7
	c17.4-1.1,34.8-2.8,52.2-3.6c10.8-0.5,21.7,0.5,32.5-0.1c21.4-1.2,42.8-3.9,64.2-4.3c26.1-0.6,52-3.5,78.2-3.3
	c22.2,0.1,44.4-3.4,66.5-5.6c10.4-1,20.8-3.8,31.2-3.9c34.6-0.3,69.3,0.3,103.9,0.7c2.2,0.2,4.4,0.5,6.5,0.9V239.6z"/>
</svg>
