<?xml version="1.0" encoding="utf-8"?>
<!-- Generator: Adobe Illustrator 22.1.0, SVG Export Plug-In . SVG Version: 6.00 Build 0)  -->
<svg version="1.1" id="Layer_1" xmlns="http://www.w3.org/2000/svg" xmlns:xlink="http://www.w3.org/1999/xlink" x="0px" y="0px"
	 viewBox="0 0 1451 144" style="enable-background:new 0 0 1451 144;" xml:space="preserve">
<style type="text/css">
	.st0{fill:#E6E5E5;enable-background:new    ;}
</style>
<path class="st0" d="M0,7.9c3.2,0,7.8,0.8,8.1,0.9c0,0,0,0,0,0c0.5,0,12.7-1.3,14.7-1.3c1.9,0,14.9,1.2,16.5,1.3
	c0.1,0,0.2,0,0.3-0.1c2-0.2,5.7-3.1,10.5-3.9c2-0.3,13.3,1.3,13.3,1.3l12,2c0,0,0,0,0,0h7.9c0,0,0,0,0.1,0c0.3-0.1,2.2-0.7,5.3-1.3
	c3.3-0.7,6-0.7,8.7-0.7c2.3,0,8.8,0.5,10.8,0.6c0.3,0,1.5,0.3,1.6,0.5c0.3,0.4,0.5,0.8,4.9,0.8h12c0,0,0,0,0,0
	c0.2,0,3.4-0.7,5.3-0.7c2,0,4.7,2.7,8.7,3.3c3.9,0.7,7.9,2.6,8,2.7c0,0,0,0,0,0c0.1,0,6,2,9.3,2.7c3.3,0.7,8,1.3,13.3,1.3
	c5.3,0,6-0.7,10.7,0c4.7,0.7,10,0,12,0s14-0.7,17.3-0.7c3.3,0,8,0,12,0.7s5.3,1.3,8,1.3c2.7,0,5.3,0.7,10.7,0.7
	c5.3,0,12.7,0,18.7-0.7c6-0.7,7.3-0.7,12.7-0.7c5.3,0,19.3,3.3,21.3,3.3s18.7,4,20.7,4s14,0.7,18,0.7s6.7,0,10,0c3.3,0,9.3-2,12-2
	c2.4,0,6.9,1.2,7.8,1.3c1.3,0.2,3.1-0.1,3.2-0.1c1.7-0.2,13.2-2,18.2-3.8c5.3-2,10-3.3,18-2c7.1,1.2,16.7,2.4,18.9,2.6
	c0.3,0,0.3,0.2,0.7,0.4l4.7,2.8c0.6,0.4,1.5,1.1,1.9,1.1l11.7,0.8c0.5,0,1.1-0.2,1.2-0.2c1.1-0.5,5.9-2.2,7.7-2.2
	c1.9,0,9.3-0.6,10-0.7c0,0,0.1,0,0.1,0c0.5,0.2,4.8,2,7.3,2.6c2.7,0.7,11.7,0.7,14.6,0c2.7-0.7,7.4-3.3,15.4-2c8,1.3,34.7,4,34.7,4
	l15.3,1.3c0,0,6.7,0.7,12,0c5.3-0.7,10.7-1.3,15.3-1.3c4.6,0,15.2,0.7,15.3,0.7c0,0,0,0,0,0h20.7c5.5-0.1,93.5,4.1,170.2-3.3
	c0,0,3.6-0.5,3.6-0.5c2.8-0.5,16.5-4.8,24.9-2.9c8.7,2,17.9,5.3,25.3,4c7.1-1.3,17.2-1.2,18-1.3c0,0,0.1,0,0.1,0l15.9-0.7h5.3
	c0,0,5.3,0,9.3,0.7s10-1.3,12.7-1.3c2.7,0,5.3-0.7,7.3-0.7s10.7,0,12.7,0s6-0.7,8.7,0c2.7,0.7,8.7,0.7,11.3,0c2.7-0.7,6-2,8.7-2.7
	c2.7-0.7,6.7-1.3,9.3-1.3c2.7,0,12.7-0.7,14.7,0s10.7,1.3,16.7,1.3s8,0,12,0s11.3,0.7,16-0.7c4.3-1.2,9-3,10-3.4
	c0.1,0,1.4-0.6,2.5-0.8c1-0.2,7.8-0.4,10.9,0.2c3.3,0.7,12.6,1.3,12.7,1.3c0,0,0,0,0,0l16,0c0,0,2.2-0.1,2.2-0.1
	c0.8-0.1,7.2-1.2,9.1-1.2c2,0,5.3-1.3,10.7-1.3c5.3,0,11.3,0,15.3,0s6,0,10.7,0c4.7,0,10.3-1,13.6-2.4s9-2.3,13-3s10-2.7,15.3,0
	c5.3,2.7,11.8,4,17.2,4.7s8.8,1.4,12.2,1.4c3.2,0,11.8,0.1,12.6,0c0,0,2.1,0,12-2c2.6-0.5,7.3-3.3,14.7-0.7c7.3,2.7,14,4,18,3.3
	c4-0.7,10.6-1.3,10.7-1.3c0,0,0,0,0,0l14-0.7l16.3-0.4c0,0,3-0.3,3.1-0.3c2.1-0.1,18.1-5.4,20-6c2.8-0.8,20.3-2,20.7-2c0,0,0,0,0,0
	h12.6c0,0,0,0,0,0c0.4,0,30.1-3.3,45.3-0.7c0,0,0,0,0,0c0.2,0.1,7.4,2.7,12.7,2c0,0,12-1.3,20-0.7c7.9,0.7,17.2,1.3,17.3,1.3
	c0,0,0,0,0,0c0.2,0,10-0.7,12-0.7c0,0,4.8-0.2,4.8,0l0.1,137.2c0,0.1-1450.9,0-1450.9,0C-0.1,143.9,0,7.9,0,7.9z"/>
</svg>
