<?xml version="1.0" encoding="utf-8"?>
<!-- Generator: Adobe Illustrator 22.0.1, SVG Export Plug-In . SVG Version: 6.00 Build 0)  -->
<svg version="1.1" id="Layer_1" xmlns="http://www.w3.org/2000/svg" xmlns:xlink="http://www.w3.org/1999/xlink" x="0px" y="0px"
	 viewBox="0 0 61.2 59.1" style="enable-background:new 0 0 61.2 59.1;" xml:space="preserve">
<style type="text/css">
	.st0{fill:#076359;}
</style>
<g>
	<g>
		<path class="st0" d="M37.8,0C24.9,0,14.4,10.5,14.4,23.4c0,3.7,0.9,7.2,2.4,10.4l-16,16c0,0-0.1,0.1-0.1,0.2
			c-0.7,0.8-0.9,2-0.6,3.3c0.3,1.2,1,2.5,2.1,3.6c1.5,1.5,3.2,2.2,4.7,2.2c0.9,0,1.7-0.3,2.3-0.9l0,0l0,0l15.5-15.5
			c3.7,2.5,8.3,4,13.1,4c12.9,0,23.4-10.5,23.4-23.4C61.1,10.5,50.7,0,37.8,0z M57.5,31.5h-1.6V26H59C58.7,27.9,58.3,29.8,57.5,31.5
			z M54.9,24c-0.6,0-1,0.4-1,1v6.5h-3V24c0-0.3-0.1-0.5-0.3-0.7L49,21.6l4.5-3.6h4.6c0.1,0,0.2,0,0.3-0.1c0.5,1.7,0.7,3.6,0.7,5.4
			c0,0.2,0,0.4,0,0.6L54.9,24L54.9,24z M32.1,36v-8h4v8H32.1z M37.1,26h-6c-0.6,0-1,0.4-1,1v9h-3V24.4l1.4-1.4
			c0.1,0,0.2-0.1,0.2-0.2c0.1-0.1,0.1-0.2,0.2-0.3l3.6-3.6h11.2l5.2,5.4v11.6H38.1v-9C38.1,26.4,37.7,26,37.1,26z M18,31.5
			c-0.4-1.1-0.8-2.2-1.1-3.4H21c0.6,0,1-0.4,1-1v-4.3c0-0.6-0.4-1-1-1h-4.6c0.1-1.3,0.3-2.5,0.6-3.7h5.7l3.8,3.9l-1.2,1.2
			c-0.2,0.2-0.3,0.4-0.3,0.7v7.6H18C18.1,31.5,18.1,31.5,18,31.5z M16.4,23.8H20v2.3h-3.5C16.5,25.4,16.4,24.6,16.4,23.8z M57.8,16
			h-4.7c-0.2,0-0.4,0.1-0.6,0.2l-4.9,3.9l-2.7-2.8c-0.2-0.2-0.4-0.3-0.7-0.3h-2.5l6-5h8.2C56.6,13.3,57.3,14.6,57.8,16z M38.5,17
			h-6.4c-0.3,0-0.5,0.1-0.7,0.3L28,20.7l-3.4-3.5l5.7-5.9h7.2l3.9,3.3L38.5,17z M37.8,2c6.7,0,12.7,3.1,16.6,8h-7.2
			c-0.2,0-0.5,0.1-0.6,0.2l-3.6,3l-4.5-3.7c-0.2-0.2-0.4-0.2-0.6-0.2h-8c-0.3,0-0.5,0.1-0.7,0.3l-6.4,6.6h-5.1
			C20.6,7.9,28.5,2,37.8,2z M7.8,56.8L7.8,56.8c-0.7,0.7-2.6,0.3-4.2-1.3c-0.8-0.8-1.4-1.7-1.6-2.6c-0.2-0.7-0.1-1.3,0.2-1.6
			c0,0,0-0.1,0.1-0.1l15.6-15.6c1.4,2.3,3.2,4.3,5.2,6L7.8,56.8z M37.8,44.8c-8.1,0-15.2-4.6-18.8-11.3h6.2V37c0,0.6,0.4,1,1,1h23.7
			c0.6,0,1-0.4,1-1v-3.5h5.7C53,40.2,45.9,44.8,37.8,44.8z"/>
		<path class="st0" d="M41.1,32h4c0.6,0,1-0.4,1-1v-4c0-0.6-0.4-1-1-1h-4c-0.6,0-1,0.4-1,1v4C40.1,31.6,40.6,32,41.1,32z M42.1,28h2
			v2h-2C42.1,30,42.1,28,42.1,28z"/>
	</g>
</g>
</svg>
