<?xml version="1.0" encoding="utf-8"?>
<!-- Generator: Adobe Illustrator 22.0.1, SVG Export Plug-In . SVG Version: 6.00 Build 0)  -->
<svg version="1.1" id="Layer_2_1_" xmlns="http://www.w3.org/2000/svg" xmlns:xlink="http://www.w3.org/1999/xlink" x="0px" y="0px"
	 viewBox="0 0 7398.6 655.8" style="enable-background:new 0 0 7398.6 655.8;" xml:space="preserve">
<style type="text/css">
	.st0{fill:#076359;stroke:#076359;stroke-linejoin:round;stroke-miterlimit:10;}
</style>
<path class="st0" d="M0.5,69.1l74.1,65.6c0,0,41.1,10.9,55.7,0s47.4-30.4,47.4-30.4h43.7c0,0,7.3-7.3,14.6-27.9s0,0,54.6,7.3
	s102,20.6,102,20.6h43.7l36.4-17l49.8-10.4l52.2-40.6h21.9h54.6l112.9,32.8l40.1-3.6l43.7,7.3L917.1,88H990h51l87.4,32.1l65.6,19.4
	h61.9l51,17h109.3c0,0,14.6-32.8,25.5-32.8s80.1,10.9,80.1,10.9l69.2,21.9h153l87.4,36.4h134.8h83.8h120.2l142.1,36.4h244.1
	l127.5-32.8l94.7-47.4l167.6-72.9l120.2-40.1h142.1l51-29.1c0,0,61.9-14.6,83.8,0c21.9,14.6,58.3,25.5,83.8,32.8
	S3591,79.9,3591,79.9l102,10.9l72.9,24.1h58.3h98.3l94.7,30.6c0,0,76.5,7.3,94.7,3.6c18.2-3.6,105.6-34.2,105.6-34.2l36.4-20.4
	c0,0,36.4-18.2,72.9,0c36.4,18.2,91.1,43.7,91.1,43.7l105.6,29.1l142.1,14.6l149.3,47.4l160.3,40.1H5150l211.3,54.6l287.8,58.3
	h313.3l200,43.8c0,0,91.1-18.2,105.6-21.9c14.6-3.6,145.7,3.6,145.7,3.6l40.1-40.1l40.1-72.9l123.8,7.3l80.1,21.9l127.5,3.6
	l112.9-36.4c0,0,54.6-18.2,54.6-21.9s29.1-56.1,29.1-56.1l54.6-35l47.4-21.9l51-3.6l51-25.5l58.3-18.2h51l62.9,3.6v542.7H0.5V69.1z"
	/>
</svg>
