<?xml version="1.0" encoding="utf-8"?>
<!-- Generator: Adobe Illustrator 22.0.1, SVG Export Plug-In . SVG Version: 6.00 Build 0)  -->
<svg version="1.1" id="Layer_3" xmlns="http://www.w3.org/2000/svg" xmlns:xlink="http://www.w3.org/1999/xlink" x="0px" y="0px"
	 viewBox="0 0 1914.7 228.4" style="enable-background:new 0 0 1914.7 228.4;" xml:space="preserve">
<style type="text/css">
	.st0{fill:#076359;stroke:#076359;stroke-linejoin:round;stroke-miterlimit:10;}
</style>
<path class="st0" d="M0.8,0.5h18.6c0.2,0,0.5,0.1,0.7,0.2L32.8,4c0.2,0.2,0.4,0.2,0.7,0.2h15.6c0.1,0,0.2,0,0.3,0l15,4.7
	c0,0,0,0,0.1,0l19.8,7.5h0.1l19.8,9.4c0.1,0,0.1,0,0.2,0.1l26.3,7.5c0.1,0,0.1,0,0.2,0.1c0.8,0.4,9.7,4.5,15.1,0
	c5.3-4.4,19.7-7.2,21.6-7.5c0.1,0,0.3-0.1,0.4-0.2l16.6-11.4c0.2-0.1,0.4-0.2,0.6-0.2h16.2c0.3,0,0.6-0.1,0.8-0.4
	c1.4-1.9,7.6-5.9,10.1-5.9c2.6,0,13.5-0.8,15-0.9c0.1,0,0.2,0,0.3-0.1l23.2-4.5c0.2-0.1,0.4-0.1,0.6-0.1l21.4,4.6h0.1
	c1.4,0.5,25.6,3.8,29.3,5.7c3.8,1.9,14.2,11.4,18,13.3c3.6,1.8,31.4,9,33.9,9.6c0.1,0,0.2,0.1,0.4,0.2l20.6,15.7l0.1,0.1
	c1.2,0.7,19,10.4,21.7,12.3c2.8,1.9,18.9,6.6,25.6,7.6s37.9,1.9,42.6-4.7s15.2-9.5,20.8-10.4c5.7-0.9,7.6-0.9,17,0
	c9.5,0.9,18,7.6,20.8,8.5c2.5,0.8,8.8-0.3,10.1,0.7c0.2,0.1,0.4,0.2,0.6,0.2c2.4,0,17.5,0,26.2,6.4c9.5,6.9,27.5,6.9,31.2,10.7
	c3.8,3.8,9.5,7.6,11.4,13.3c1.9,5.7,19.9,13.3,19.9,13.3s16.1,6.6,22.7,7.6c6.4,0.9,37.6,4.7,39.7,5.6c0.1,0,0.1,0.1,0.2,0.1
	l36.7,7.5c0.1,0,0.2,0,0.2,0c3.2-0.2,71.1-1.8,77.5,1.9s93-11.1,98.2-11.4c0.2,0,0.3-0.1,0.5-0.1l40.5-14.1c0,0,0,0,0.1,0l23.2-4.6
	c0.1-0.1,0.3-0.1,0.4-0.2l41.6-7.5c0.1,0,0.2,0,0.3,0l64.1,9.4c0.1,0,0.2,0.1,0.3,0.1l41.5,21.7c0,0,0,0,0.1,0
	c0.8,0.3,20.1,8.5,30.3,8.5c10.4,0,28.4-4.7,34.1-5.7c5.7-0.9,40.7-11.4,40.7-11.4s38.8-10.4,42.6-12.3c3.6-1.8,32.2-8.8,34.8-9.4
	c0.1,0,0.2,0,0.4,0c3,0.5,38.8,6.6,42.4,7.5c3.8,0.9,14.2,5.7,20.8,6.6c6.6,0.9,38.8-0.9,44.5-3.8s13.3-7.6,21.8-11.4
	c8.3-3.7,35.6-25.1,36.9-26.1l0.1-0.1l13-7.8c0.1-0.1,0.2-0.1,0.4-0.1l27.1-4.7c0.1,0,0.2,0,0.4,0l25.2,4.7c0.1,0,0.2,0,0.3,0
	l26.1-2.8c0.2,0,0.4-0.1,0.5-0.2l14.9-2.6c0,0,9.5,2.8,15.2,0c5.1-2.6,12.2-8.6,12.2-8.6l5.8-5.2l3.4-3.4c0,0,3-3.2,3.6-3.2l2.4-0.2
	c1.1,0.2,5.8,1.8,5.8,1.8l3.6,2.5c0.1,0,0.1,0.1,0.2,0.1l35.9,0.9l23.3,14.9c0.2,0.2,0.5,0.2,0.8,0.1l11.6-2.9
	c0.5-0.1,6.8,0.9,7.9,2.2c1.9,2.2,2.3,7.6,4.7,8.4c2.8,0.9,14.2,2.6,19.9,6s18.9-0.6,24.6,0s25.6-8.9,34.1-9.8
	c8.3-0.9,41.2-8.2,42.6-8.5c0,0,0,0,0.1,0c1.1-0.4,22.7-7.6,24.6-10.4s10.4-19.9,17-19.9c6.3,0,31.2-8.5,33.9-9.4
	c0.2-0.1,0.3-0.1,0.5,0l12.1,1.7c0.5,0.1,0,0.5,0,1v215.2c0,0.6,0.6,0,0,0H0.8c-0.6,0,0,0.6,0,0V1.5C0.8,0.9,0.2,0.5,0.8,0.5z"/>
</svg>
