<?xml version="1.0" encoding="utf-8"?>
<!-- Generator: Adobe Illustrator 22.0.1, SVG Export Plug-In . SVG Version: 6.00 Build 0)  -->
<svg version="1.1" id="Layer_2_1_" xmlns="http://www.w3.org/2000/svg" xmlns:xlink="http://www.w3.org/1999/xlink" x="0px" y="0px"
	 viewBox="0 0 7439.5 807.2" style="enable-background:new 0 0 7439.5 807.2;" xml:space="preserve">
<style type="text/css">
	.st0{fill:#0B998A;stroke:#0B998A;stroke-linejoin:round;}
</style>
<title>Mountain1</title>
<path class="st0" d="M0.5,824.7l7456.5,6l-19.6-578.2c0,0-880.9-57.3-890-55c-8.7,2.2-476.7-79.7-520.7-87.4
	c-2.2-0.4-4.4-0.4-6.6-0.1l-210.3,31.2c-1.6,0.2-3.2,0.3-4.7,0.1l-335.5-27.6c-1.4-0.1-2.8-0.1-4.2,0.1L5306,133.2
	c-1.7,0.2-3.4,0.2-5.1,0l-216.1-27.5c-0.9-0.1-1.8-0.2-2.6-0.2h-200.7c-1.3,0-2.7-0.1-4-0.4L4697.8,70c-1.6-0.3-3.2-0.4-4.9-0.4
	l-186.4,7.9c-0.8,0-1.5,0-2.3,0l-112.8-8l-67.6-5.7c-1.9-0.2-3.8-0.6-5.6-1.3c-4.3-1.6-13.3-5.3-28.8-13c-22.8-11.4-60-2-60-2
	l-38,10c0,0-50.1,10.7-61.5,12.9c-9.9,2-47.2-1.2-56.9-2.1c-1.5-0.1-3-0.4-4.5-0.9l-53.9-17.4c-2.1-0.7-4.2-1-6.4-1H3917
	c-2.2,0-4.4-0.3-6.5-1l-40.2-13.3c-1.4-0.5-2.8-0.8-4.3-0.9l-60.7-6.5c-0.5-0.1-1.1-0.1-1.6-0.1c-6.1-0.2-45.5-1.5-60.2-5.7
	c-15.9-4.5-42.3,5.1-56-4c-11.5-7.7-46.2-5.2-56.9-4.3c-2.1,0.2-4.3,0.1-6.3-0.4L3570.5,1c-3.4-0.7-6.9-0.6-10.3,0.4l-66.4,19.4
	c-1.6,0.5-3.3,0.7-5,0.8l-85.9,3.2c-1,0-1.9,0.1-2.9,0.3l-112,20.2c-0.4,0.1-0.8,0.1-1.1,0.2l-126.4,15.8c-0.7,0.1-1.4,0.2-2.1,0.4
	l-133.4,11.2c-1,0.2-470,14.9-471.1,15L-17.5,164.8L0.5,824.7z"/>
</svg>
