<?xml version="1.0" encoding="utf-8"?>
<!-- Generator: Adobe Illustrator 22.1.0, SVG Export Plug-In . SVG Version: 6.00 Build 0)  -->
<svg version="1.1" id="Layer_2_1_" xmlns="http://www.w3.org/2000/svg" xmlns:xlink="http://www.w3.org/1999/xlink" x="0px" y="0px"
	 viewBox="0 0 7387.6 3059.4" style="enable-background:new 0 0 7387.6 3059.4;" xml:space="preserve">
<style type="text/css">
	.st0{fill:#163834;stroke:#163834;stroke-linejoin:round;stroke-miterlimit:10;}
</style>
<path class="st0" d="M0.5,68.9l68.1,65.5c0,0,41.1,10.9,55.7,0s47.3-30.3,47.3-30.3h43.7c0,0,7.3-7.3,14.6-27.9s0,0,54.6,7.3
	s101.9,20.6,101.9,20.6h43.7l36.4-17l49.8-10.4l52.1-40.6h21.8h54.6l112.9,32.8l40-3.6l43.7,7.2l69.2,15.2h72.8h51l87.4,32.2
	l65.5,19.4h61.9l51,17h109.2c0,0,14.6-32.8,25.5-32.8s80.1,10.9,80.1,10.9l69.2,21.8h152.9l87.4,36.4h134.7h83.7H2163l142,36.4
	h243.9l127.4-32.8l94.7-47.3l167.5-72.8l120.1-40h142l51-29.1c0,0,61.9-14.6,83.7,0s58.2,25.5,83.7,32.8s163.8,40,163.8,40
	l101.9,10.9l72.8,24.1h58.2h98.3l94.7,30.5c0,0,76.4,7.3,94.7,3.6c18.2-3.6,105.6-34.2,105.6-34.2l36.4-20.4c0,0,36.4-18.2,72.8,0
	s91,43.7,91,43.7l105.6,29.1l142,14.6l149.3,47.3l160.2,40H5141l211.1,54.6l287.6,58.2h313.1l200.2,43.7c0,0,91-18.2,105.6-21.8
	s145.6,3.6,145.6,3.6l40-40l40-72.8l123.8,7.3l80.1,21.8l127.4,3.6l112.9-36.4c0,0,54.6-18.2,54.6-21.8c0-3.6,29.1-56,29.1-56
	l54.6-35l47.3-21.8l51-3.6l51-25.5l58.2-18.2h51l61.9,3.6l-2.5,2943.5H-2L0.5,68.9z"/>
</svg>
