<?xml version="1.0" encoding="utf-8"?>
<!-- Generator: Adobe Illustrator 22.0.1, SVG Export Plug-In . SVG Version: 6.00 Build 0)  -->
<svg version="1.1" id="Layer_2_1_" xmlns="http://www.w3.org/2000/svg" xmlns:xlink="http://www.w3.org/1999/xlink" x="0px" y="0px"
	 viewBox="0 0 7405.8 963" style="enable-background:new 0 0 7405.8 963;" xml:space="preserve">
<style type="text/css">
	.st0{fill:#0B9284;stroke:#0B9284;stroke-linejoin:round;stroke-miterlimit:10;}
</style>
<path class="st0" d="M0.5,45.2l95.7,43.1c0,0,57.8,7.2,78.3,0S241,68.4,241,68.4h61.4c0,0,10.2-4.8,20.5-18.3
	c10.2-13.6,0,0,76.8,4.8S543,68.5,543,68.5h61.4l51.2-11.2l70-6.8l73.3-26.7h30.7h76.8L1065,45.3l56.3-2.4l61.4,4.8l97.2,10h102.3
	h71.6l122.8,21.1l92.1,12.8h87l71.6,11.2h153.5c0,0,20.5-21.5,35.8-21.5c15.4,0,112.6,7.2,112.6,7.2l97.2,14.4h214.9l122.8,23.9
	h189.3h117.7H3040l199.6,23.9h342.9l179.1-21.5l133.1-31.1l235.4-47.9L4299,23.9h199.6l71.6-19.1c0,0,87-9.6,117.7,0
	s81.9,16.8,117.7,21.5c35.8,4.8,230.3,26.3,230.3,26.3l143.3,7.2l102.3,15.8h81.9h138.2l133.1,20.1c0,0,107.5,4.8,133.1,2.4
	s148.4-22.5,148.4-22.5l51.2-13.4c0,0,51.2-12,102.3,0c51.2,12,127.9,28.7,127.9,28.7L6346,110l199.6,9.6l209.8,31.1l493.9-82
	L7406,32l1.2,938.9H2.4L0.5,45.2z"/>
</svg>
