<?xml version="1.0" encoding="UTF-8"?> <svg xmlns="http://www.w3.org/2000/svg" id="Layer_1" data-name="Layer 1" viewBox="0 0 286.12 76.72"><defs><style>.cls-1{fill:#fff;}</style></defs><title>Aster_ConservatoryGreenLogo-white</title><path class="cls-1" d="M206.24,409.48h-.17a1.4,1.4,0,0,0-.45.2q-.36.2-.9.45a8.1,8.1,0,0,1-1.24.43,5.79,5.79,0,0,1-1.46.18,6.76,6.76,0,0,1-1.92-.27,4.7,4.7,0,0,1-1.62-.82,4,4,0,0,1-1.12-1.39,4.8,4.8,0,0,1,0-3.88,4,4,0,0,1,1.12-1.4,4.84,4.84,0,0,1,1.62-.85,6.44,6.44,0,0,1,1.92-.28,7.24,7.24,0,0,1,1.46.13q.66.13,1.15.28a6.31,6.31,0,0,1,.78.28,1.38,1.38,0,0,0,.35.13.16.16,0,0,0,.13-.08l.09-.13.24.2-1.24,2-.16-.12a.92.92,0,0,0,0-.1l0-.12a.65.65,0,0,0-.32-.37,3.27,3.27,0,0,0-.7-.34,7.37,7.37,0,0,0-.89-.25,4.16,4.16,0,0,0-.86-.1,4.05,4.05,0,0,0-1.28.2,3.16,3.16,0,0,0-1.06.58,2.92,2.92,0,0,0,0,4.42,3.15,3.15,0,0,0,1.06.58,4,4,0,0,0,1.28.2,4.76,4.76,0,0,0,1.06-.12,6.17,6.17,0,0,0,1-.32,3.44,3.44,0,0,0,.77-.43.64.64,0,0,0,.31-.46.32.32,0,0,0-.06-.2l.22-.13,1,1.76Z" transform="translate(-162.94 -334.27)"></path><path class="cls-1" d="M217,402.1a5.35,5.35,0,0,1,1.65.82,4.36,4.36,0,0,1,1.22,1.39,4.39,4.39,0,0,1,0,4,4.35,4.35,0,0,1-1.22,1.39,5,5,0,0,1-1.65.8,6.39,6.39,0,0,1-3.55,0,5,5,0,0,1-1.65-.8,4.39,4.39,0,0,1-1.22-1.39,4.39,4.39,0,0,1,0-4,4.4,4.4,0,0,1,1.22-1.39,5.37,5.37,0,0,1,1.65-.82,5.85,5.85,0,0,1,3.55,0Zm-3,1.45a3.59,3.59,0,0,0-1.09.57,2.94,2.94,0,0,0-.78.92,2.73,2.73,0,0,0,0,2.49,3,3,0,0,0,.78.92,3.59,3.59,0,0,0,1.09.57,3.73,3.73,0,0,0,2.41,0,3.57,3.57,0,0,0,1.09-.57,2.93,2.93,0,0,0,.78-.92,2.73,2.73,0,0,0,0-2.49,2.91,2.91,0,0,0-.78-.92,3.57,3.57,0,0,0-1.09-.57,3.72,3.72,0,0,0-2.41,0Z" transform="translate(-162.94 -334.27)"></path><path class="cls-1" d="M224.45,410.38a.27.27,0,0,0,.3-.3v-7.55a.26.26,0,0,0-.3-.3v-.3h2.71v.3c-.09,0-.13.05-.13.17s.11.24.32.46l4.55,5v-5.29c0-.2-.14-.3-.41-.3v-.3h2.39v.3a.26.26,0,0,0-.3.3v7.55a.27.27,0,0,0,.3.3v.3h-2.56v-.3c.14,0,.21-.05.21-.15s-.08-.2-.25-.38l-4.83-5.29v5.52c0,.2.12.3.36.3v.3h-2.34Z" transform="translate(-162.94 -334.27)"></path><path class="cls-1" d="M238.89,407.93l.16.08a.52.52,0,0,0,.06.26,1.13,1.13,0,0,0,.44.39,4.44,4.44,0,0,0,.74.34,6.25,6.25,0,0,0,.88.24,4.39,4.39,0,0,0,.82.09q.27,0,.7,0a4,4,0,0,0,.84-.18,2.31,2.31,0,0,0,.71-.37.74.74,0,0,0,.3-.62.64.64,0,0,0-.28-.57,2,2,0,0,0-.73-.27,7.52,7.52,0,0,0-1-.11l-1.18-.08a10.67,10.67,0,0,1-1.18-.16,3.24,3.24,0,0,1-1-.39,2.05,2.05,0,0,1-.73-.75,2.43,2.43,0,0,1-.28-1.24,2.39,2.39,0,0,1,.23-1,2.44,2.44,0,0,1,.7-.88,3.87,3.87,0,0,1,1.2-.62,5.45,5.45,0,0,1,1.71-.24,6.85,6.85,0,0,1,1.46.13,10.67,10.67,0,0,1,1.07.28c.3.1.55.2.76.28a1.36,1.36,0,0,0,.52.13.42.42,0,0,0,.32-.1l.19.13-1.09,2.08-.16-.07a1,1,0,0,0-.13-.38,1.39,1.39,0,0,0-.42-.39,3.49,3.49,0,0,0-.69-.34,5.5,5.5,0,0,0-.85-.24,4.65,4.65,0,0,0-.92-.09,4.52,4.52,0,0,0-.72.06,3.36,3.36,0,0,0-.67.17,1.51,1.51,0,0,0-.5.31.63.63,0,0,0-.2.47.68.68,0,0,0,.28.6,1.94,1.94,0,0,0,.73.3,6.6,6.6,0,0,0,1,.13l1.18.08a8.7,8.7,0,0,1,1.18.18,3.27,3.27,0,0,1,1,.4,2.13,2.13,0,0,1,.73.74,2.34,2.34,0,0,1,.28,1.21,2.21,2.21,0,0,1-.43,1.41,3.07,3.07,0,0,1-1.09.86,4.61,4.61,0,0,1-1.4.42,9.74,9.74,0,0,1-1.4.11,8.74,8.74,0,0,1-1.51-.11,5.27,5.27,0,0,1-1-.26,6.53,6.53,0,0,1-.64-.28.92.92,0,0,0-.41-.12.26.26,0,0,0-.21.13l-.22-.13Z" transform="translate(-162.94 -334.27)"></path><path class="cls-1" d="M258.24,403.72a.31.31,0,0,0-.13-.27.87.87,0,0,0-.47-.09h-5.13v2.06h3.1a1.05,1.05,0,0,0,.49-.09c.12-.06.17-.22.17-.47h.28v2.59h-.28c0-.25-.06-.42-.17-.49a1,1,0,0,0-.49-.11h-3.1v2.3h5.29a.61.61,0,0,0,.39-.12.38.38,0,0,0,.15-.31h.28V411h-.28c0-.17-.05-.26-.15-.28a1.78,1.78,0,0,0-.39,0h-7.38v-.3a.3.3,0,0,0,.2-.08.28.28,0,0,0,.09-.23v-7.55a.28.28,0,0,0-.09-.22.3.3,0,0,0-.2-.08v-.3h7.22a.75.75,0,0,0,.47-.11.35.35,0,0,0,.13-.29h.29v2.19Z" transform="translate(-162.94 -334.27)"></path><path class="cls-1" d="M267.89,401.93a6.17,6.17,0,0,1,1.38.14,3.07,3.07,0,0,1,1.06.45,2.06,2.06,0,0,1,.68.8,2.79,2.79,0,0,1,.24,1.2,2.2,2.2,0,0,1-.62,1.68A3.25,3.25,0,0,1,269,407l2.11,3.16a.43.43,0,0,0,.26.2,1.25,1.25,0,0,0,.28,0v.3h-3v-.3a.58.58,0,0,0,.25-.05.15.15,0,0,0,.1-.13.37.37,0,0,0-.06-.19l-.19-.29L267,407.12h-2.26v3a.26.26,0,0,0,.1.23.67.67,0,0,0,.37.08v.3h-2.74v-.3c.3,0,.46-.1.46-.3v-7.55c0-.2-.15-.3-.46-.3v-.3Zm-.41,3.89a4.25,4.25,0,0,0,1-.09,1.58,1.58,0,0,0,.6-.26.92.92,0,0,0,.32-.39,1.3,1.3,0,0,0,0-1,.92.92,0,0,0-.32-.39,1.57,1.57,0,0,0-.6-.26,4.13,4.13,0,0,0-1-.09h-2.74v2.46Z" transform="translate(-162.94 -334.27)"></path><path class="cls-1" d="M284.42,402.23a.5.5,0,0,0-.46.24,4,4,0,0,0-.21.39l-2.8,6.47-.24.53a.79.79,0,0,0-.1.28.21.21,0,0,0,0,.13l.1.1v.3h-2.42v-.3a.24.24,0,0,0,.14-.23,1.11,1.11,0,0,0-.12-.34l-.29-.64-2.85-6.5a.53.53,0,0,0-.22-.26,1.79,1.79,0,0,0-.41-.17v-.3h2.84v.3a.42.42,0,0,0-.21.06.23.23,0,0,0-.1.22,1.13,1.13,0,0,0,.13.46l.32.7,2,4.57,2-4.51q.19-.43.36-.77a1.37,1.37,0,0,0,.17-.48c0-.18-.15-.26-.44-.26v-.3h2.77Z" transform="translate(-162.94 -334.27)"></path><path class="cls-1" d="M286.7,410.38a.46.46,0,0,0,.33-.22,3.74,3.74,0,0,0,.23-.41l2.93-6.47.2-.4a.75.75,0,0,0,.09-.32.25.25,0,0,0-.11-.23.89.89,0,0,0-.24-.1v-.3h2.68v.3l-.22.09a.25.25,0,0,0-.11.24.7.7,0,0,0,.05.27c0,.09.09.21.17.35l3.3,6.77a.56.56,0,0,0,.21.27l.31.17v.3h-2.79v-.3a.38.38,0,0,0,.16-.05.16.16,0,0,0,.1-.15,1.07,1.07,0,0,0-.13-.43l-.6-1.23h-3.86l-.57,1.18a1.43,1.43,0,0,0-.16.5c0,.12.1.19.3.19v.3H286.7Zm6-3.09-1.33-3.1-1.49,3.1Z" transform="translate(-162.94 -334.27)"></path><path class="cls-1" d="M304.59,410.38v.3h-2.44v-.3a.29.29,0,0,0,.2-.08.28.28,0,0,0,.09-.23v-6.62h-2.61a.51.51,0,0,0-.28.08.34.34,0,0,0-.13.32h-.28v-2.33h.28a.34.34,0,0,0,.13.32.52.52,0,0,0,.28.09h7a.52.52,0,0,0,.28-.09.34.34,0,0,0,.13-.32h.29v2.33h-.29a.34.34,0,0,0-.13-.32.51.51,0,0,0-.28-.08h-2.61v6.62C304.25,410.27,304.36,410.38,304.59,410.38Z" transform="translate(-162.94 -334.27)"></path><path class="cls-1" d="M317.7,402.1a5.38,5.38,0,0,1,1.65.82,4.39,4.39,0,0,1,1.22,1.39,4.4,4.4,0,0,1,0,4,4.39,4.39,0,0,1-1.22,1.39,5,5,0,0,1-1.65.8,6.39,6.39,0,0,1-3.55,0,5,5,0,0,1-1.65-.8,4.41,4.41,0,0,1-1.22-1.39,4.4,4.4,0,0,1,0-4,4.41,4.41,0,0,1,1.22-1.39,5.38,5.38,0,0,1,1.65-.82,5.85,5.85,0,0,1,3.55,0Zm-3,1.45a3.6,3.6,0,0,0-1.08.57,2.91,2.91,0,0,0-.78.92,2.73,2.73,0,0,0,0,2.49,2.92,2.92,0,0,0,.78.92,3.6,3.6,0,0,0,1.08.57,3.74,3.74,0,0,0,2.41,0,3.62,3.62,0,0,0,1.08-.57,2.94,2.94,0,0,0,.78-.92,2.72,2.72,0,0,0,0-2.49,2.93,2.93,0,0,0-.78-.92,3.62,3.62,0,0,0-1.08-.57,3.72,3.72,0,0,0-2.41,0Z" transform="translate(-162.94 -334.27)"></path><path class="cls-1" d="M330.36,401.93a6.15,6.15,0,0,1,1.38.14,3.07,3.07,0,0,1,1.06.45,2,2,0,0,1,.68.8,2.74,2.74,0,0,1,.24,1.2,2.2,2.2,0,0,1-.62,1.68,3.26,3.26,0,0,1-1.66.78l2.11,3.16a.44.44,0,0,0,.26.2,1.27,1.27,0,0,0,.28,0v.3h-3v-.3a.56.56,0,0,0,.24-.05.15.15,0,0,0,.1-.13.4.4,0,0,0-.06-.19c0-.07-.11-.17-.19-.29l-1.74-2.59H327.2v3a.25.25,0,0,0,.11.23.65.65,0,0,0,.37.08v.3h-2.74v-.3c.31,0,.46-.1.46-.3v-7.55c0-.2-.15-.3-.46-.3v-.3Zm-.41,3.89a4.22,4.22,0,0,0,.95-.09,1.57,1.57,0,0,0,.6-.26.93.93,0,0,0,.32-.39,1.33,1.33,0,0,0,0-1,.93.93,0,0,0-.32-.39,1.56,1.56,0,0,0-.6-.26,4.1,4.1,0,0,0-.95-.09H327.2v2.46Z" transform="translate(-162.94 -334.27)"></path><path class="cls-1" d="M340.16,401.93v.3a.9.9,0,0,0-.27,0,.19.19,0,0,0-.13.21,1.45,1.45,0,0,0,.23.47l.54.85.64,1q.33.5.54.85l1.85-2.68.21-.32a.39.39,0,0,0,.08-.22c0-.08-.05-.13-.15-.15l-.28,0v-.3h2.77v.3l-.24,0a.55.55,0,0,0-.23.12,1.39,1.39,0,0,0-.25.26c-.09.12-.2.28-.33.48l-2.69,4v3c0,.2.12.3.37.3v.3h-2.5v-.3a.36.36,0,0,0,.24-.08.27.27,0,0,0,.1-.23v-3l-3.06-4.49a1.07,1.07,0,0,0-.73-.4v-.3Z" transform="translate(-162.94 -334.27)"></path><path class="cls-1" d="M363.31,404.62l-.32-.1a.66.66,0,0,0,0-.2.55.55,0,0,0-.29-.45,2.81,2.81,0,0,0-.75-.34,5.78,5.78,0,0,0-1-.21,8.21,8.21,0,0,0-1-.07,4,4,0,0,0-1.16.17,3,3,0,0,0-1,.54,2.66,2.66,0,0,0-.73.95,3.72,3.72,0,0,0,0,2.82,2.64,2.64,0,0,0,.73,1,3,3,0,0,0,1,.54,4,4,0,0,0,1.16.17,7.6,7.6,0,0,0,1.62-.16,9.92,9.92,0,0,0,1.23-.34v-1.43h-2a.49.49,0,0,0-.33.1.69.69,0,0,0-.14.43h-.28v-2.13h.28a.48.48,0,0,0,.14.36.59.59,0,0,0,.33.08h4v.3a.94.94,0,0,0-.4.12.37.37,0,0,0-.08.28v1.88a.22.22,0,0,0,.1.22l.22.12v.27a5.72,5.72,0,0,1-1.1.63,7.17,7.17,0,0,1-1.17.39,6.8,6.8,0,0,1-1.19.17c-.4,0-.78,0-1.16,0a6.6,6.6,0,0,1-2-.29,4.23,4.23,0,0,1-1.56-.86,3.92,3.92,0,0,1-1-1.4,5.1,5.1,0,0,1,0-3.74,4,4,0,0,1,1-1.4,4.39,4.39,0,0,1,1.56-.89,6.26,6.26,0,0,1,2-.31,8.22,8.22,0,0,1,1.33.1c.42.07.8.14,1.12.22l.82.23a2,2,0,0,0,.4.11.34.34,0,0,0,.22-.07l.16-.12.19.12Z" transform="translate(-162.94 -334.27)"></path><path class="cls-1" d="M374.06,401.93a6.17,6.17,0,0,1,1.38.14,3.06,3.06,0,0,1,1.06.45,2.05,2.05,0,0,1,.68.8,2.75,2.75,0,0,1,.24,1.2,2.2,2.2,0,0,1-.62,1.68,3.26,3.26,0,0,1-1.66.78l2.11,3.16a.44.44,0,0,0,.26.2,1.28,1.28,0,0,0,.28,0v.3h-3v-.3a.56.56,0,0,0,.24-.05.15.15,0,0,0,.1-.13.38.38,0,0,0-.06-.19l-.19-.29-1.74-2.59h-2.26v3a.25.25,0,0,0,.1.23.65.65,0,0,0,.37.08v.3h-2.74v-.3c.31,0,.46-.1.46-.3v-7.55c0-.2-.15-.3-.46-.3v-.3Zm-.41,3.89a4.22,4.22,0,0,0,.95-.09,1.56,1.56,0,0,0,.6-.26.92.92,0,0,0,.32-.39,1.29,1.29,0,0,0,0-1,.92.92,0,0,0-.32-.39,1.54,1.54,0,0,0-.6-.26,4.1,4.1,0,0,0-.95-.09h-2.74v2.46Z" transform="translate(-162.94 -334.27)"></path><path class="cls-1" d="M389.58,403.72a.31.31,0,0,0-.13-.27.87.87,0,0,0-.47-.09h-5.13v2.06h3.1a1.05,1.05,0,0,0,.49-.09c.12-.06.17-.22.17-.47h.29v2.59h-.29c0-.25-.06-.42-.17-.49a1,1,0,0,0-.49-.11h-3.1v2.3h5.29a.61.61,0,0,0,.39-.12.38.38,0,0,0,.15-.31H390V411h-.29c0-.17-.05-.26-.15-.28a1.78,1.78,0,0,0-.39,0h-7.38v-.3a.29.29,0,0,0,.2-.08.28.28,0,0,0,.09-.23v-7.55a.27.27,0,0,0-.09-.22.29.29,0,0,0-.2-.08v-.3H389a.75.75,0,0,0,.47-.11.36.36,0,0,0,.13-.29h.28v2.19Z" transform="translate(-162.94 -334.27)"></path><path class="cls-1" d="M401.72,403.72a.3.3,0,0,0-.14-.27.86.86,0,0,0-.47-.09H396v2.06h3.1a1.05,1.05,0,0,0,.49-.09c.12-.06.17-.22.17-.47H400v2.59h-.29c0-.25-.06-.42-.17-.49a1,1,0,0,0-.49-.11H396v2.3h5.29a.61.61,0,0,0,.39-.12.38.38,0,0,0,.15-.31h.29V411h-.29c0-.17-.05-.26-.15-.28a1.76,1.76,0,0,0-.39,0H393.9v-.3a.29.29,0,0,0,.2-.08.28.28,0,0,0,.09-.23v-7.55a.27.27,0,0,0-.09-.22.29.29,0,0,0-.2-.08v-.3h7.22a.74.74,0,0,0,.47-.11.35.35,0,0,0,.14-.29H402v2.19Z" transform="translate(-162.94 -334.27)"></path><path class="cls-1" d="M406.13,410.38a.27.27,0,0,0,.3-.3v-7.55a.27.27,0,0,0-.3-.3v-.3h2.71v.3c-.08,0-.13.05-.13.17s.11.24.32.46l4.54,5v-5.29c0-.2-.14-.3-.41-.3v-.3h2.39v.3a.26.26,0,0,0-.3.3v7.55a.27.27,0,0,0,.3.3v.3H413v-.3c.13,0,.21-.05.21-.15s-.09-.2-.25-.38l-4.83-5.29v5.52c0,.2.12.3.36.3v.3h-2.34Z" transform="translate(-162.94 -334.27)"></path><path class="cls-1" d="M189.28,346.13h-24.8c-1.34,0-1.54.64-1.54,1s.15,1.07,1.54,1.07h11.36v26.31c0,.57,0,1.76,1,1.76s1.07-1.28,1.07-1.76V348.22h11.35c1.39,0,1.54-.75,1.54-1.07S190.62,346.13,189.28,346.13Z" transform="translate(-162.94 -334.27)"></path><path class="cls-1" d="M222.56,345.91c-1.07,0-1.07,1.27-1.07,1.75V359.8H201.58V347.67c0-.48,0-1.75-1.07-1.75s-1,1.19-1,1.75v26.87c0,.57,0,1.76,1,1.76s1.07-1.28,1.07-1.76V361.89h19.92v12.64c0,.48,0,1.76,1.07,1.76s1-1.19,1-1.76V347.67C223.59,347.1,223.59,345.91,222.56,345.91Z" transform="translate(-162.94 -334.27)"></path><path class="cls-1" d="M256.53,374H237.44V361.46h9.76c1.39,0,1.54-.75,1.54-1.07s-.2-1-1.54-1h-9.76V348.22h18.1c1.39,0,1.54-.75,1.54-1.07s-.2-1-1.54-1h-19.3a.82.82,0,0,0-.89.9v28.16a.81.81,0,0,0,.89.89h20.29c1.39,0,1.54-.75,1.54-1.07C258.07,374.33,257.55,374,256.53,374Z" transform="translate(-162.94 -334.27)"></path><path class="cls-1" d="M337.26,359.53c-12,0-12.95-2.35-12.95-5.42,0-4,3.9-6.59,9.94-6.59a23.14,23.14,0,0,1,10.83,2.89,6,6,0,0,0,2.06.81c.35,0,.77-.29.77-1.11,0-1.08-7.61-4.68-13.71-4.68-7.28,0-12,3.39-12,8.63,0,6.43,4.78,7.56,14.82,7.56,1.87,0,11.18.3,11.18,6.2,0,3.85-4.38,6.75-10.19,6.75a28,28,0,0,1-11.69-3,7.15,7.15,0,0,0-2.06-.77.94.94,0,0,0-.94,1c0,1.51,9.21,4.85,14.43,4.85,5.79,0,12.54-2.33,12.54-8.89C350.32,360.33,341.19,359.53,337.26,359.53Z" transform="translate(-162.94 -334.27)"></path><path class="cls-1" d="M381.13,346.08h-24.8c-1.34,0-1.54.64-1.54,1s.15,1.07,1.54,1.07h11.35v26.31c0,.57,0,1.76,1,1.76s1.07-1.28,1.07-1.76V348.17h11.35c1.39,0,1.54-.75,1.54-1.07S382.47,346.08,381.13,346.08Z" transform="translate(-162.94 -334.27)"></path><path class="cls-1" d="M412.75,373.93H393.66V361.41h9.76c1.39,0,1.54-.75,1.54-1.07s-.2-1-1.54-1h-9.76V348.17h18.1c1.39,0,1.54-.74,1.54-1.07s-.2-1-1.54-1h-19.3a.82.82,0,0,0-.9.9v28.15a.82.82,0,0,0,.9.9h20.29c1.39,0,1.54-.75,1.54-1.07C414.29,374.27,413.77,373.93,412.75,373.93Z" transform="translate(-162.94 -334.27)"></path><path class="cls-1" d="M441.44,363c3.62-.61,7.61-2.19,7.61-8.45,0-5.32-3.72-8.5-10-8.5H425a.8.8,0,0,0-.89.9v27.29c0,1,0,2,1.07,2s1-1.09,1-2.06V363.13h13l6.12,12.15c.26.56.5,1,1.13,1a.93.93,0,0,0,.9-1,1.57,1.57,0,0,0-.2-.71Zm5.52-8.45c0,5.49-3.09,6.46-9.59,6.46H426.15V348.17h12.94C444.1,348.17,447,350.5,447,354.58Z" transform="translate(-162.94 -334.27)"></path><ellipse class="cls-1" cx="355.99" cy="386.36" rx="1.31" ry="4.67" transform="translate(-276.18 288.38) rotate(-74.07)"></ellipse><ellipse class="cls-1" cx="357.91" cy="383.31" rx="4.67" ry="1.31" transform="translate(-184.65 -312.78) rotate(-3.34)"></ellipse><ellipse class="cls-1" cx="357.16" cy="379.81" rx="4.67" ry="1.31" transform="translate(-282.58 -165.37) rotate(-22.9)"></ellipse><ellipse class="cls-1" cx="353.12" cy="388.86" rx="1.31" ry="4.67" transform="translate(-326.68 148.2) rotate(-58.02)"></ellipse><path class="cls-1" d="M351.54,382.73a2.33,2.33,0,0,0-2.5-2.11c-2,0-2.6,1.81-3,2.55-.44.91-2.59,2.21-5.54,3.18-14.84,4.31-22.95-7-26.69-14.83l-2.61-6.85,0-.06h0l-11.14-29.18c-.25-.57-.56-1.16-1.23-1.16s-.85.49-1.16,1.1l-17,45.8c0,.09-.07.19-.12.29a2.24,2.24,0,0,0-.25.79.87.87,0,0,0,1,.89c.73,0,1-.65,1.3-1.18l5.82-14.83h20.84c2.17,7.52,9.55,24.87,31.71,21a31.39,31.39,0,0,0,9.41-3.62A2,2,0,0,0,351.54,382.73Zm-42.9-18.09.09.41H289.27l9.62-27.29Z" transform="translate(-162.94 -334.27)"></path></svg> 